<?xml version="1.0" encoding="UTF-8"?><svg id="Calque_2" xmlns="http://www.w3.org/2000/svg" viewBox="0 0 59.23 51.75"><defs><style>.cls-1{fill:#a81933;}</style></defs><g id="Calque_1-2"><path class="cls-1" d="M42.72,0c-5.64,0-10.47,4.02-13.11,6.8-2.65-2.77-7.46-6.8-13.1-6.8C6.79,0,0,6.78,0,16.48c0,10.69,8.43,17.6,16.58,24.28,3.85,3.16,7.83,6.42,10.89,10.04,.51,.61,1.27,.96,2.06,.96h.16c.79,0,1.55-.35,2.06-.96,3.06-3.62,7.04-6.88,10.9-10.04,8.15-6.68,16.59-13.59,16.59-24.28C59.23,6.78,52.44,0,42.72,0h0Z"/></g></svg>