<svg width="219" height="98" viewBox="0 0 219 98" fill="none" xmlns="http://www.w3.org/2000/svg">
<g clip-path="url(#clip0_223_750)">
<path d="M26.3499 56.11C25.0799 60.95 21.4699 64.56 14.9999 64.56C6.46992 64.56 2.16992 58.09 2.16992 50.02C2.16992 41.95 6.47992 35.26 15.1499 35.26C21.8799 35.26 25.5299 39.1 26.3699 43.86H22.5899C21.5699 40.75 19.5099 38.41 14.9999 38.41C8.70992 38.41 6.13992 44.13 6.13992 49.9C6.13992 55.67 8.57992 61.4 15.1699 61.4C19.5699 61.4 21.4999 58.88 22.5699 56.11H26.3699H26.3499Z" fill="#1D1D1B"/>
<path d="M57.01 49.77C57.01 57.62 52.61 64.6 43.62 64.6C35.22 64.6 30.54 58.11 30.54 49.93C30.54 41.75 35.32 35.26 43.95 35.26C51.98 35.26 57.01 41.29 57.01 49.77ZM34.5 49.81C34.5 55.98 37.66 61.38 43.79 61.38C50.41 61.38 53.05 55.92 53.05 49.83C53.05 43.74 50.06 38.49 43.8 38.49C37.54 38.49 34.5 43.73 34.5 49.81Z" fill="#1D1D1B"/>
<path d="M85.5101 56.11C84.2401 60.95 80.6301 64.56 74.1601 64.56C65.6301 64.56 61.3301 58.09 61.3301 50.02C61.3301 41.95 65.6401 35.26 74.3101 35.26C81.0401 35.26 84.6901 39.1 85.5301 43.86H81.7501C80.7301 40.75 78.6701 38.41 74.1601 38.41C67.8701 38.41 65.3001 44.13 65.3001 49.9C65.3001 55.67 67.7401 61.4 74.3301 61.4C78.7301 61.4 80.6601 58.88 81.7301 56.11H85.5301H85.5101Z" fill="#1D1D1B"/>
<path d="M116.17 49.77C116.17 57.62 111.77 64.6 102.78 64.6C94.3797 64.6 89.6997 58.11 89.6997 49.93C89.6997 41.75 94.4797 35.26 103.11 35.26C111.14 35.26 116.17 41.29 116.17 49.77ZM93.6597 49.81C93.6597 55.98 96.8197 61.38 102.95 61.38C109.57 61.38 112.21 55.92 112.21 49.83C112.21 43.74 109.22 38.49 102.96 38.49C96.6997 38.49 93.6597 43.73 93.6597 49.81Z" fill="#1D1D1B"/>
<path d="M133.09 49.77C133.09 57.62 128.69 64.6 119.7 64.6C111.3 64.6 106.62 58.11 106.62 49.93C106.62 41.75 111.4 35.26 120.03 35.26C128.06 35.26 133.09 41.29 133.09 49.77ZM110.58 49.81C110.58 55.98 113.74 61.38 119.87 61.38C126.49 61.38 129.13 55.92 129.13 49.83C129.13 43.74 126.14 38.49 119.88 38.49C113.62 38.49 110.58 43.73 110.58 49.81Z" fill="#1D1D1B"/>
<path d="M139.01 64.2V35.67H144.02C148.11 42.34 157.01 56.53 158.61 59.63H158.67C158.4 55.97 158.42 51.47 158.42 46.81V35.67H162V64.2H157.3C153.53 58.01 144.25 42.74 142.46 39.54H142.4C142.61 42.79 142.61 47.62 142.61 52.77V64.19H139.02L139.01 64.2Z" fill="#1D1D1B"/>
<path d="M173.34 35.67V52.84C173.34 59.58 177.04 61.4 180.69 61.4C184.96 61.4 187.98 59.44 187.98 52.84V35.67H191.79V52.64C191.79 61.89 186.67 64.55 180.61 64.55C174.55 64.55 169.51 61.68 169.51 52.9V35.66H173.34V35.67Z" fill="#1D1D1B"/>
<path d="M205.25 38.91H196.04V35.67H218.29V38.91H209.06V64.2H205.25V38.91Z" fill="#1D1D1B"/>
<path d="M82.3999 79.18L84.3499 95.64L148.12 87.91L146.2 71.62" stroke="url(#paint0_linear_223_750)" stroke-width="4"/>
<path d="M75.33 29.28L73 9.38996L137.92 2.20996L140.24 22.06" stroke="url(#paint1_linear_223_750)" stroke-width="4"/>
</g>
<defs>
<linearGradient id="paint0_linear_223_750" x1="80.2213" y1="82.3698" x2="150.517" y2="86.8786" gradientUnits="userSpaceOnUse">
<stop stop-color="#C29958"/>
<stop offset="1" stop-color="#F2E69B"/>
</linearGradient>
<linearGradient id="paint1_linear_223_750" x1="70.461" y1="12.2842" x2="142.543" y2="17.2109" gradientUnits="userSpaceOnUse">
<stop stop-color="#C29958"/>
<stop offset="1" stop-color="#F2E69B"/>
</linearGradient>
<clipPath id="clip0_223_750">
<rect width="218.6" height="97.87" fill="white"/>
</clipPath>
</defs>
</svg>
