<svg width="30" height="30" viewBox="0 0 30 30" fill="none" xmlns="http://www.w3.org/2000/svg">
<path d="M26.25 25C26.25 25.6906 25.6906 26.25 25 26.25H5C4.30937 26.25 3.75 25.6906 3.75 25V5C3.75 4.30937 4.30937 3.75 5 3.75H25C25.6906 3.75 26.25 4.30937 26.25 5V25Z" fill="url(#paint0_linear_332_1047)"/>
<path opacity="0.05" d="M15.625 23.7498V16.8748H13.125V13.1248H15.625V11.7886C15.625 8.63734 17.2913 6.90234 20.3156 6.90234C21.5625 6.90234 22.2388 6.98984 22.5644 7.03234L23.1006 7.10172L23.125 7.63984V10.6248H20.8531C20.1481 10.6248 20 11.4861 20 12.2092V13.1248H22.9519L22.3719 16.8748H20V23.7498H15.625Z" fill="black"/>
<path opacity="0.07" d="M15.9375 23.4373V16.5623H13.4375V13.4373H15.9375V11.7886C15.9375 8.79609 17.4513 7.21484 20.3156 7.21484C21.5475 7.21484 22.2094 7.30109 22.5281 7.34234L22.8006 7.37797L22.8131 7.65422V10.3123H20.8538C19.8394 10.3123 19.6881 11.5005 19.6881 12.2092V13.4373H22.5881L22.105 16.5623H19.6875V23.4373H15.9375Z" fill="black"/>
<path d="M20.8531 9.99998H22.5V7.65373C22.1925 7.61373 21.5431 7.52686 20.3156 7.52686C17.7525 7.52686 16.25 8.82686 16.25 11.7887V13.75H13.75V16.25H16.25V23.125H19.375V16.25H21.8363L22.2225 13.75H19.375V12.2094C19.375 11.0381 19.7575 9.99998 20.8531 9.99998Z" fill="white"/>
<defs>
<linearGradient id="paint0_linear_332_1047" x1="3.8925" y1="3.06" x2="26.2981" y2="27.145" gradientUnits="userSpaceOnUse">
<stop stop-color="#0D61A9"/>
<stop offset="1" stop-color="#16528C"/>
</linearGradient>
</defs>
</svg>
