<?xml version="1.0" encoding="utf-8"?>
<!-- Generator: Adobe Illustrator 26.3.1, SVG Export Plug-In . SVG Version: 6.00 Build 0)  -->
<svg version="1.1" id="Calque_1" xmlns="http://www.w3.org/2000/svg" xmlns:xlink="http://www.w3.org/1999/xlink" x="0px" y="0px"
	 viewBox="0 0 60.4 52.8" style="enable-background:new 0 0 60.4 52.8;" xml:space="preserve">
<style type="text/css">
	.st0{fill:#FAFAFA;stroke:#393939;stroke-miterlimit:10;}
	.st1{fill:#A81933;}
</style>
<path class="st0" d="M43.2,0.5c-5.6,0-10.5,4-13.1,6.8C27.5,4.5,22.6,0.5,17,0.5C7.3,0.5,0.5,7.3,0.5,17c0,10.7,8.4,17.6,16.6,24.3
	c3.9,3.2,7.8,6.4,10.9,10c0.5,0.6,1.3,1,2.1,1h0.2c0.8,0,1.5-0.4,2.1-1c3.1-3.6,7-6.9,10.9-10c8.2-6.7,16.6-13.6,16.6-24.3
	C59.7,7.3,52.9,0.5,43.2,0.5L43.2,0.5z"/>
<path class="st1" d="M36.3,129.5c-5.6,0-10.5,4-13.1,6.8c-2.6-2.8-7.5-6.8-13.1-6.8c-9.7,0-16.5,6.8-16.5,16.5
	c0,10.7,8.4,17.6,16.6,24.3c3.8,3.2,7.8,6.4,10.9,10c0.5,0.6,1.3,1,2.1,1h0.2c0.8,0,1.5-0.4,2.1-1c3.1-3.6,7-6.9,10.9-10
	C44.6,163.6,53,156.7,53,146C52.8,136.3,46,129.5,36.3,129.5L36.3,129.5z"/>
</svg>
