<svg width="84" height="66" viewBox="0 0 84 66" fill="none" xmlns="http://www.w3.org/2000/svg">
<g clip-path="url(#clip0_582_2963)">
<path d="M71.0769 38.6342V62.7805C71.0769 63.6525 70.7572 64.407 70.1178 65.0442C69.4784 65.6814 68.7211 66 67.8461 66H48.4615V46.6829H35.5385V66H16.1538C15.2788 66 14.5216 65.6814 13.8822 65.0442C13.2428 64.407 12.9231 63.6525 12.9231 62.7805V38.6342C12.9231 38.6006 12.9315 38.5503 12.9483 38.4833C12.9651 38.4162 12.9736 38.3659 12.9736 38.3323L42 14.4878L71.0264 38.3323C71.0601 38.3994 71.0769 38.5 71.0769 38.6342ZM82.3341 35.1631L79.2043 38.8857C78.9351 39.1875 78.5817 39.372 78.1442 39.439H77.9928C77.5553 39.439 77.2019 39.3217 76.9327 39.0869L42 10.061L7.0673 39.0869C6.66346 39.3552 6.25961 39.4726 5.85576 39.439C5.41826 39.372 5.0649 39.1875 4.79567 38.8857L1.66586 35.1631C1.39663 34.8278 1.27884 34.4337 1.31249 33.981C1.34615 33.5282 1.53124 33.1677 1.86778 32.8994L38.1635 2.76679C39.2404 1.89484 40.5192 1.45886 42 1.45886C43.4808 1.45886 44.7596 1.89484 45.8365 2.76679L58.1538 13.029V3.21953C58.1538 2.75002 58.3053 2.36435 58.6082 2.06252C58.911 1.76069 59.2981 1.60978 59.7692 1.60978H69.4615C69.9327 1.60978 70.3197 1.76069 70.6226 2.06252C70.9255 2.36435 71.0769 2.75002 71.0769 3.21953V23.7439L82.1322 32.8994C82.4687 33.1677 82.6538 33.5282 82.6875 33.981C82.7211 34.4337 82.6034 34.8278 82.3341 35.1631Z" fill="#FAFAFA"/>
</g>
<defs>
<clipPath id="clip0_582_2963">
<rect width="84" height="66" fill="white"/>
</clipPath>
</defs>
</svg>
