<svg width="30" height="30" viewBox="0 0 30 30" fill="none" xmlns="http://www.w3.org/2000/svg">
<path d="M15 27.5C21.9036 27.5 27.5 21.9036 27.5 15C27.5 8.09644 21.9036 2.5 15 2.5C8.09644 2.5 2.5 8.09644 2.5 15C2.5 21.9036 8.09644 27.5 15 27.5Z" fill="#E60023"/>
<path d="M15.2774 7.13525C9.88224 7.13525 7.01782 10.7569 7.01782 14.6997C7.01782 16.5333 7.99377 18.8156 9.55532 19.5424C9.79183 19.6526 9.91879 19.605 9.97311 19.3756C10.0149 19.2016 10.2255 18.3526 10.3202 17.9579C10.3505 17.8319 10.3356 17.7237 10.2337 17.5997C9.71684 16.9727 9.3034 15.8208 9.3034 14.7468C9.3034 11.9896 11.3909 9.3218 14.9471 9.3218C18.0178 9.3218 20.1678 11.4146 20.1678 14.4074C20.1678 17.7886 18.4601 20.1314 16.2385 20.1314C15.0116 20.1314 14.0928 19.1165 14.3875 17.8718C14.7409 16.3862 15.4231 14.7833 15.4231 13.7103C15.4231 12.7506 14.9087 11.9497 13.8419 11.9497C12.5875 11.9497 11.5803 13.2468 11.5803 14.9853C11.5803 16.0915 11.9543 16.8405 11.9543 16.8405C11.9543 16.8405 10.7154 22.079 10.4885 23.054C10.2372 24.1304 10.3352 25.6425 10.4439 26.6311C10.7258 26.7417 11.0079 26.8522 11.2994 26.9424C11.8099 26.1125 12.5712 24.7514 12.8534 23.666C13.0058 23.0809 13.6327 20.6944 13.6327 20.6944C14.0399 21.4718 15.2303 22.13 16.4972 22.13C20.2668 22.13 22.9837 18.6631 22.9837 14.355C22.9837 10.2247 19.614 7.13525 15.2774 7.13525Z" fill="white"/>
</svg>
