<svg width="70" height="70" viewBox="0 0 70 70" fill="none" xmlns="http://www.w3.org/2000/svg">
<path d="M48.1088 10.4703C42.4658 10.4703 37.6438 14.4926 34.9946 17.2657C32.3454 14.4926 27.5342 10.4703 21.8938 10.4703C12.1719 10.4703 5.38461 17.2469 5.38461 26.9473C5.38461 37.6357 13.8142 44.5442 21.9692 51.2265C25.8192 54.3846 29.8038 57.6476 32.8596 61.2661C33.3738 61.8719 34.1277 62.2219 34.9192 62.2219H35.0754C35.8696 62.2219 36.6208 61.8692 37.1323 61.2661C40.1935 57.6476 44.1754 54.3819 48.0281 51.2265C56.1804 44.5469 64.6154 37.6384 64.6154 26.9473C64.6154 17.2469 57.8281 10.4703 48.1088 10.4703Z" fill="#393939"/>
</svg>
