<svg width="70" height="70" viewBox="0 0 70 70" fill="none" xmlns="http://www.w3.org/2000/svg">
<path d="M6.7375 32.7891C6.63028 32.3593 6.6224 31.9106 6.71446 31.4773C6.80652 31.0439 6.99609 30.6372 7.26879 30.288C7.54148 29.9389 7.89014 29.6564 8.28829 29.4621C8.68644 29.2678 9.12363 29.1667 9.56666 29.1666H60.4333C60.8764 29.1667 61.3136 29.2678 61.7117 29.4621C62.1099 29.6564 62.4585 29.9389 62.7312 30.288C63.0039 30.6372 63.1935 31.0439 63.2855 31.4773C63.3776 31.9106 63.3697 32.3593 63.2625 32.7891L57.9804 53.9145C57.665 55.1765 56.9368 56.2969 55.9115 57.0975C54.8863 57.8981 53.6229 58.3331 52.3221 58.3333H17.6779C16.3771 58.3331 15.1137 57.8981 14.0885 57.0975C13.0632 56.2969 12.335 55.1765 12.0196 53.9145L6.7375 32.792V32.7891Z" stroke="#FAFAFA" stroke-width="2" stroke-linejoin="round"/>
<path d="M52.5 29.1666L40.8333 11.6666M26.25 40.8333V46.6666V40.8333ZM43.75 40.8333V46.6666V40.8333ZM17.5 29.1666L29.1667 11.6666L17.5 29.1666Z" stroke="#FAFAFA" stroke-width="2" stroke-linecap="round"/>
</svg>
