<svg width="30" height="30" viewBox="0 0 30 30" fill="none" xmlns="http://www.w3.org/2000/svg">
<path d="M14.998 8.24782L14.6365 7.86939C13.666 6.85354 12.0062 5.5 10.132 5.5C8.44569 5.5 7.044 6.08567 6.0651 7.06276C5.08627 8.03978 4.5 9.43826 4.5 11.12C4.5 12.9594 5.22106 14.4863 6.33417 15.8742C7.45687 17.2739 8.95353 18.503 10.4769 19.7513L10.4771 19.7514L10.5167 19.7839C11.9267 20.9405 13.4274 22.1714 14.5865 23.5438M14.998 8.24782L14.205 23.867M14.998 8.24782L15.3595 7.86939C16.3296 6.85395 17.9935 5.5 19.869 5.5C21.5548 5.5 22.9562 6.08564 23.935 7.06274C24.9137 8.03977 25.5 9.43826 25.5 11.12C25.5 12.9598 24.7785 14.487 23.665 15.8749C22.5419 17.2746 21.0451 18.5034 19.5222 19.7512L19.8379 20.1366L19.5221 19.7512M14.998 8.24782L19.5221 19.7512M14.5865 23.5438C14.5867 23.544 14.5868 23.5442 14.587 23.5444L14.205 23.867M14.5865 23.5438C14.5864 23.5437 14.5863 23.5436 14.5862 23.5434L14.205 23.867M14.5865 23.5438C14.683 23.6573 14.8237 23.722 14.97 23.722H15.028C15.1744 23.722 15.3146 23.6569 15.4107 23.5436M14.205 23.867C14.396 24.092 14.676 24.222 14.97 24.222H15.028C15.323 24.222 15.602 24.091 15.792 23.867M15.4107 23.5436C15.4106 23.5437 15.4104 23.5439 15.4103 23.5441L15.792 23.867M15.4107 23.5436C16.5818 22.1594 18.0972 20.9183 19.5196 19.7533L19.5221 19.7512M15.4107 23.5436L15.792 23.867M15.792 23.867L19.5221 19.7512M14.998 7.524L14.6365 7.17861C14.6392 7.17571 14.642 7.1728 14.6448 7.16989C14.7718 7.2918 14.8898 7.41071 14.998 7.524ZM14.998 7.524L15.3595 7.17861C15.3568 7.17573 15.354 7.17284 15.3513 7.16995C15.2242 7.29184 15.1062 7.41073 14.998 7.524Z" fill="#FAFAFA" stroke="#393939"/>
</svg>
