<svg width="70" height="70" viewBox="0 0 70 70" fill="none" xmlns="http://www.w3.org/2000/svg">
<path d="M15.7363 60.5391L8.46289 53.2588C7.94708 52.7452 7.53781 52.1348 7.25861 51.4626C6.9794 50.7904 6.83576 50.0697 6.83594 49.3418C6.83594 47.8584 7.41699 46.4639 8.46289 45.418L16.2969 37.584C16.8104 37.0682 17.4208 36.6589 18.093 36.3797C18.7652 36.1005 19.486 35.9569 20.2139 35.957C21.6973 35.957 23.0918 36.5381 24.1377 37.584L29.8662 43.3125C32.8218 41.9716 35.5106 40.1073 37.8027 37.8096C40.106 35.5176 41.9771 32.8291 43.3262 29.873L37.5977 24.1445C37.0818 23.631 36.6726 23.0206 36.3934 22.3484C36.1142 21.6762 35.9705 20.9554 35.9707 20.2275C35.9707 18.7441 36.5518 17.3496 37.5977 16.3037L45.4248 8.46289C45.9393 7.94645 46.5509 7.53683 47.2243 7.25761C47.8977 6.9784 48.6196 6.83509 49.3486 6.83594C50.832 6.83594 52.2266 7.417 53.2725 8.46289L60.5391 15.7295C62.2139 17.3975 63.1641 19.7012 63.1641 22.0664C63.1641 22.5654 63.123 23.0439 63.041 23.5156C61.5234 32.7305 56.6221 41.8701 49.2529 49.2461C41.8906 56.6152 32.7578 61.5098 23.5156 63.0478C20.6924 63.5127 17.7871 62.5762 15.7363 60.5391Z" fill="#D1B39F"/>
</svg>
