<svg width="70" height="70" viewBox="0 0 70 70" fill="none" xmlns="http://www.w3.org/2000/svg">
<path d="M28.3413 59.7888L51.0125 36.5313C51.4107 36.1228 51.6335 35.5749 51.6335 35.0044C51.6335 34.4339 51.4107 33.8861 51.0125 33.4775L28.3413 10.2113C28.1558 10.0208 27.934 9.86937 27.689 9.76599C27.4441 9.6626 27.1809 9.60934 26.915 9.60934C26.6491 9.60934 26.3859 9.6626 26.141 9.76599C25.896 9.86937 25.6742 10.0208 25.4888 10.2113C25.1072 10.602 24.8935 11.1264 24.8935 11.6725C24.8935 12.2187 25.1072 12.7431 25.4888 13.1338L46.8081 35.0044L25.4888 56.8707C25.1085 57.2611 24.8957 57.7847 24.8957 58.3297C24.8957 58.8748 25.1085 59.3983 25.4888 59.7888C25.6742 59.9793 25.896 60.1307 26.141 60.2341C26.3859 60.3375 26.6491 60.3907 26.915 60.3907C27.1809 60.3907 27.4441 60.3375 27.689 60.2341C27.934 60.1307 28.1558 59.9793 28.3413 59.7888V59.7888Z" fill="#393939"/>
</svg>
