<svg width="70" height="70" viewBox="0 0 70 70" fill="none" xmlns="http://www.w3.org/2000/svg">
<path d="M25.3954 57.4788L52.5 30.3742L39.6258 17.5L12.5213 44.6046C12.1481 44.9782 11.883 45.4459 11.7542 45.958L8.75 61.25L24.0392 58.2459C24.5525 58.1175 25.0221 57.8521 25.3954 57.4788ZM61.25 21.6242C62.3436 20.5303 62.9579 19.0468 62.9579 17.5C62.9579 15.9532 62.3436 14.4698 61.25 13.3759L56.6242 8.75004C55.5303 7.65645 54.0468 7.04211 52.5 7.04211C50.9532 7.04211 49.4697 7.65645 48.3758 8.75004L43.75 13.3759L56.6242 26.25L61.25 21.6242Z" fill="#393939"/>
</svg>
