<svg width="70" height="70" viewBox="0 0 70 70" fill="none" xmlns="http://www.w3.org/2000/svg">
<path d="M35 17.5C32.8368 17.5 30.7221 18.1415 28.9235 19.3433C27.1248 20.5451 25.7229 22.2533 24.8951 24.2519C24.0672 26.2505 23.8506 28.4496 24.2727 30.5713C24.6947 32.693 25.7364 34.6418 27.266 36.1715C28.7957 37.7011 30.7445 38.7428 32.8662 39.1648C34.9879 39.5869 37.187 39.3703 39.1856 38.5424C41.1842 37.7146 42.8924 36.3127 44.0942 34.5141C45.296 32.7154 45.9375 30.6007 45.9375 28.4375C45.9375 25.5367 44.7852 22.7547 42.734 20.7035C40.6828 18.6523 37.9008 17.5 35 17.5Z" fill="#393939"/>
<path d="M35 4.375C28.9429 4.375 23.0219 6.17113 17.9857 9.53624C12.9494 12.9014 9.02412 17.6843 6.70619 23.2803C4.38825 28.8763 3.78178 35.034 4.96345 40.9746C6.14512 46.9153 9.06187 52.3722 13.3449 56.6551C17.6278 60.9381 23.0847 63.8549 29.0254 65.0365C34.966 66.2182 41.1237 65.6117 46.7197 63.2938C52.3157 60.9759 57.0986 57.0506 60.4638 52.0143C63.8289 46.9781 65.625 41.057 65.625 35C65.6157 26.8806 62.3862 19.0964 56.6449 13.3551C50.9036 7.61379 43.1194 4.38426 35 4.375ZM52.4825 54.5256C52.4389 51.6563 51.2699 48.919 49.2273 46.9035C47.1847 44.8879 44.4321 43.7554 41.5625 43.75H28.4375C25.5679 43.7554 22.8153 44.8879 20.7727 46.9035C18.7301 48.919 16.0436 53.7859 16 56.6551C12.0331 53.113 7.96377 46.142 6.70619 40.9746C5.4486 35.8073 6.60445 28.9689 8.5 24C10.3956 19.0311 14.6203 14.0168 19 11C23.3797 7.98322 29.6818 6.5 35 6.5C40.3182 6.5 46.1203 7.98322 50.5 11C54.8797 14.0168 59.6044 19.5311 61.5 24.5C63.3956 29.4689 63.7576 36.8327 62.5 42C61.2424 47.1673 56.4494 53.9579 52.4825 57.5V54.5256Z" fill="#393939"/>
</svg>
