<?xml version="1.0" encoding="utf-8"?>
<!-- Generator: Adobe Illustrator 26.3.1, SVG Export Plug-In . SVG Version: 6.00 Build 0)  -->
<svg version="1.1" id="Calque_1" xmlns="http://www.w3.org/2000/svg" xmlns:xlink="http://www.w3.org/1999/xlink" x="0px" y="0px"
	 viewBox="0 0 168.6 108.6" style="enable-background:new 0 0 168.6 108.6;" xml:space="preserve">
<style type="text/css">
	.st0{fill:#FAFAFA;stroke:#393939;stroke-miterlimit:10;}
	.st1{fill:#A81933;}
</style>
<path class="st0" d="M55.9,28.4c-5.6,0-10.5,4-13.1,6.8c-2.6-2.8-7.5-6.8-13.1-6.8c-9.7,0-16.5,6.8-16.5,16.5
	c0,10.7,8.4,17.6,16.6,24.3c3.9,3.2,7.8,6.4,10.9,10c0.5,0.6,1.3,1,2.1,1h0.2c0.8,0,1.5-0.4,2.1-1c3.1-3.6,7-6.9,10.9-10
	c8.2-6.7,16.6-13.6,16.6-24.3C72.4,35.2,65.6,28.4,55.9,28.4L55.9,28.4z"/>
<path class="st1" d="M134,28.4c-5.6,0-10.5,4-13.1,6.8c-2.6-2.8-7.5-6.8-13.1-6.8c-9.7,0-16.5,6.8-16.5,16.5
	c0,10.7,8.4,17.6,16.6,24.3c3.8,3.2,7.8,6.4,10.9,10c0.5,0.6,1.3,1,2.1,1h0.2c0.8,0,1.5-0.4,2.1-1c3.1-3.6,7-6.9,10.9-10
	c8.2-6.7,16.6-13.6,16.6-24.3C150.5,35.2,143.7,28.4,134,28.4L134,28.4z"/>
</svg>
