<svg width="70" height="70" viewBox="0 0 70 70" fill="none" xmlns="http://www.w3.org/2000/svg">
<path d="M11.6667 32.0833H29.1667C29.9402 32.0833 30.6821 31.776 31.2291 31.2291C31.776 30.6821 32.0833 29.9402 32.0833 29.1667V11.6667C32.0833 10.8931 31.776 10.1513 31.2291 9.60427C30.6821 9.05729 29.9402 8.75 29.1667 8.75H11.6667C10.8931 8.75 10.1513 9.05729 9.60427 9.60427C9.05729 10.1513 8.75 10.8931 8.75 11.6667V29.1667C8.75 29.9402 9.05729 30.6821 9.60427 31.2291C10.1513 31.776 10.8931 32.0833 11.6667 32.0833ZM40.8333 32.0833H58.3333C59.1069 32.0833 59.8488 31.776 60.3957 31.2291C60.9427 30.6821 61.25 29.9402 61.25 29.1667V11.6667C61.25 10.8931 60.9427 10.1513 60.3957 9.60427C59.8488 9.05729 59.1069 8.75 58.3333 8.75H40.8333C40.0598 8.75 39.3179 9.05729 38.7709 9.60427C38.224 10.1513 37.9167 10.8931 37.9167 11.6667V29.1667C37.9167 29.9402 38.224 30.6821 38.7709 31.2291C39.3179 31.776 40.0598 32.0833 40.8333 32.0833ZM11.6667 61.25H29.1667C29.9402 61.25 30.6821 60.9427 31.2291 60.3957C31.776 59.8488 32.0833 59.1069 32.0833 58.3333V40.8333C32.0833 40.0598 31.776 39.3179 31.2291 38.7709C30.6821 38.224 29.9402 37.9167 29.1667 37.9167H11.6667C10.8931 37.9167 10.1513 38.224 9.60427 38.7709C9.05729 39.3179 8.75 40.0598 8.75 40.8333V58.3333C8.75 59.1069 9.05729 59.8488 9.60427 60.3957C10.1513 60.9427 10.8931 61.25 11.6667 61.25ZM49.5833 61.25C56.0175 61.25 61.25 56.0175 61.25 49.5833C61.25 43.1492 56.0175 37.9167 49.5833 37.9167C43.1492 37.9167 37.9167 43.1492 37.9167 49.5833C37.9167 56.0175 43.1492 61.25 49.5833 61.25Z" fill="url(#paint0_linear_744_3254)"/>
<defs>
<linearGradient id="paint0_linear_744_3254" x1="35" y1="8.75" x2="35" y2="61.25" gradientUnits="userSpaceOnUse">
<stop stop-color="#FFB88C"/>
<stop offset="1" stop-color="#E56590"/>
</linearGradient>
</defs>
</svg>
