<svg width="70" height="70" viewBox="0 0 70 70" fill="none" xmlns="http://www.w3.org/2000/svg">
<path d="M13.125 15.3125C9.52656 15.3125 6.5625 18.2766 6.5625 21.875V26.6612C4.03375 27.5734 2.1875 29.9841 2.1875 32.8125V56.875H6.5625V52.5H63.4375V56.875H67.8125V32.8125C67.8125 29.9841 65.9663 27.5734 63.4375 26.6591V21.875C63.4375 18.2766 60.4734 15.3125 56.875 15.3125H13.125ZM13.125 19.6875H56.875C58.0891 19.6875 59.0625 20.6609 59.0625 21.875V26.6612C56.5337 27.5734 54.6875 29.9841 54.6875 32.8125V37.1875H15.3125V32.8125C15.3125 29.9841 13.4663 27.5734 10.9375 26.6591V21.875C10.9375 20.6609 11.9109 19.6875 13.125 19.6875ZM8.75 30.625C9.96406 30.625 10.9375 31.5984 10.9375 32.8125V41.5625H59.0625V32.8125C59.0625 31.5984 60.0359 30.625 61.25 30.625C62.4641 30.625 63.4375 31.5984 63.4375 32.8125V48.125H6.5625V32.8125C6.5625 31.5984 7.53594 30.625 8.75 30.625Z" fill="#393939"/>
</svg>
