<svg width="70" height="70" viewBox="0 0 70 70" fill="none" xmlns="http://www.w3.org/2000/svg">
<path d="M6.73751 32.7891H7.73751C7.73751 32.7075 7.72753 32.6263 7.70779 32.5471L6.73751 32.7891ZM9.56668 29.1666L9.56668 28.1666L9.5664 28.1666L9.56668 29.1666ZM60.4333 29.1666L60.4336 28.1666H60.4333V29.1666ZM63.2625 32.7891L64.2326 33.0317L64.2328 33.0311L63.2625 32.7891ZM17.6779 58.3333L17.6778 59.3333H17.6779V58.3333ZM12.0196 53.9145L12.9897 53.672L12.9897 53.6719L12.0196 53.9145ZM6.73751 32.792H5.73751C5.73751 32.8738 5.74754 32.9553 5.76739 33.0346L6.73751 32.792ZM7.70779 32.5471C7.63733 32.2646 7.63216 31.9698 7.69265 31.685L5.7363 31.2695C5.61268 31.8514 5.62326 32.4539 5.76724 33.0311L7.70779 32.5471ZM7.69265 31.685C7.75314 31.4003 7.87772 31.133 8.05692 30.9035L6.48068 29.6725C6.11449 30.1414 5.85992 30.6875 5.7363 31.2695L7.69265 31.685ZM8.05692 30.9035C8.23612 30.6741 8.46524 30.4885 8.72688 30.3608L7.84973 28.5634C7.31507 28.8243 6.84687 29.2036 6.48068 29.6725L8.05692 30.9035ZM8.72688 30.3608C8.98853 30.2331 9.27582 30.1667 9.56696 30.1666L9.5664 28.1666C8.97147 28.1668 8.38439 28.3025 7.84973 28.5634L8.72688 30.3608ZM9.56668 30.1666H60.4333V28.1666H9.56668V30.1666ZM60.4331 30.1666C60.7242 30.1667 61.0115 30.2331 61.2731 30.3608L62.1503 28.5634C61.6156 28.3025 61.0286 28.1668 60.4336 28.1666L60.4331 30.1666ZM61.2731 30.3608C61.5348 30.4885 61.7639 30.6741 61.9431 30.9035L63.5193 29.6725C63.1532 29.2036 62.6849 28.8243 62.1503 28.5634L61.2731 30.3608ZM61.9431 30.9035C62.1223 31.133 62.2469 31.4003 62.3074 31.685L64.2637 31.2695C64.1401 30.6875 63.8855 30.1414 63.5193 29.6725L61.9431 30.9035ZM62.3074 31.685C62.3679 31.9698 62.3627 32.2646 62.2922 32.5471L64.2328 33.0311C64.3768 32.4539 64.3873 31.8514 64.2637 31.2695L62.3074 31.685ZM17.6781 57.3333C16.6003 57.3331 15.5534 56.9727 14.704 56.3093L13.473 57.8856C14.674 58.8235 16.154 59.3331 17.6778 59.3333L17.6781 57.3333ZM14.704 56.3093C13.8545 55.646 13.2511 54.7177 12.9897 53.672L11.0494 54.157C11.419 55.6354 12.272 56.9478 13.473 57.8856L14.704 56.3093ZM12.9897 53.6719L7.70764 32.5494L5.76739 33.0346L11.0495 54.1571L12.9897 53.6719ZM7.73751 32.792V32.7891H5.73751V32.792H7.73751ZM39.9998 57.3333C39.9827 57.3333 39.9656 57.3333 39.9485 57.3333C39.9314 57.3333 39.9142 57.3333 39.8971 57.3333C39.8799 57.3333 39.8627 57.3333 39.8455 57.3333C39.8283 57.3333 39.8111 57.3333 39.7939 57.3333C39.7766 57.3333 39.7594 57.3333 39.7421 57.3333C39.7248 57.3333 39.7075 57.3333 39.6902 57.3333C39.6729 57.3333 39.6556 57.3333 39.6383 57.3333C39.6209 57.3333 39.6036 57.3333 39.5862 57.3333C39.5688 57.3333 39.5514 57.3333 39.534 57.3333C39.5166 57.3333 39.4992 57.3333 39.4817 57.3333C39.4643 57.3333 39.4468 57.3333 39.4294 57.3333C39.4119 57.3333 39.3944 57.3333 39.3769 57.3333C39.3594 57.3333 39.3418 57.3333 39.3243 57.3333C39.3067 57.3333 39.2892 57.3333 39.2716 57.3333C39.254 57.3333 39.2364 57.3333 39.2188 57.3333C39.2012 57.3333 39.1836 57.3333 39.1659 57.3333C39.1483 57.3333 39.1306 57.3333 39.113 57.3333C39.0953 57.3333 39.0776 57.3333 39.0599 57.3333C39.0422 57.3333 39.0245 57.3333 39.0067 57.3333C38.989 57.3333 38.9712 57.3333 38.9534 57.3333C38.9357 57.3333 38.9179 57.3333 38.9001 57.3333C38.8823 57.3333 38.8645 57.3333 38.8466 57.3333C38.8288 57.3333 38.811 57.3333 38.7931 57.3333C38.7752 57.3333 38.7574 57.3333 38.7395 57.3333C38.7216 57.3333 38.7037 57.3333 38.6857 57.3333C38.6678 57.3333 38.6499 57.3333 38.6319 57.3333C38.614 57.3333 38.596 57.3333 38.578 57.3333C38.56 57.3333 38.542 57.3333 38.524 57.3333C38.506 57.3333 38.488 57.3333 38.4699 57.3333C38.4519 57.3333 38.4338 57.3333 38.4158 57.3333C38.3977 57.3333 38.3796 57.3333 38.3615 57.3333C38.3434 57.3333 38.3253 57.3333 38.3072 57.3333C38.289 57.3333 38.2709 57.3333 38.2528 57.3333C38.2346 57.3333 38.2164 57.3333 38.1982 57.3333C38.1801 57.3333 38.1619 57.3333 38.1437 57.3333C38.1255 57.3333 38.1072 57.3333 38.089 57.3333C38.0708 57.3333 38.0525 57.3333 38.0342 57.3333C38.016 57.3333 37.9977 57.3333 37.9794 57.3333C37.9611 57.3333 37.9428 57.3333 37.9245 57.3333C37.9062 57.3333 37.8879 57.3333 37.8695 57.3333C37.8512 57.3333 37.8328 57.3333 37.8145 57.3333C37.7961 57.3333 37.7777 57.3333 37.7593 57.3333C37.7409 57.3333 37.7225 57.3333 37.7041 57.3333C37.6857 57.3333 37.6672 57.3333 37.6488 57.3333C37.6304 57.3333 37.6119 57.3333 37.5934 57.3333C37.575 57.3333 37.5565 57.3333 37.538 57.3333C37.5195 57.3333 37.501 57.3333 37.4825 57.3333C37.464 57.3333 37.4454 57.3333 37.4269 57.3333C37.4084 57.3333 37.3898 57.3333 37.3712 57.3333C37.3527 57.3333 37.3341 57.3333 37.3155 57.3333C37.2969 57.3333 37.2783 57.3333 37.2597 57.3333C37.2411 57.3333 37.2225 57.3333 37.2039 57.3333C37.1852 57.3333 37.1666 57.3333 37.1479 57.3333C37.1293 57.3333 37.1106 57.3333 37.0919 57.3333C37.0733 57.3333 37.0546 57.3333 37.0359 57.3333C37.0172 57.3333 36.9985 57.3333 36.9797 57.3333C36.961 57.3333 36.9423 57.3333 36.9235 57.3333C36.9048 57.3333 36.8861 57.3333 36.8673 57.3333C36.8485 57.3333 36.8298 57.3333 36.811 57.3333C36.7922 57.3333 36.7734 57.3333 36.7546 57.3333C36.7358 57.3333 36.717 57.3333 36.6981 57.3333C36.6793 57.3333 36.6605 57.3333 36.6416 57.3333C36.6228 57.3333 36.6039 57.3333 36.5851 57.3333C36.5662 57.3333 36.5473 57.3333 36.5285 57.3333C36.5096 57.3333 36.4907 57.3333 36.4718 57.3333C36.4529 57.3333 36.434 57.3333 36.4151 57.3333C36.3961 57.3333 36.3772 57.3333 36.3583 57.3333C36.3393 57.3333 36.3204 57.3333 36.3014 57.3333C36.2825 57.3333 36.2635 57.3333 36.2445 57.3333C36.2255 57.3333 36.2066 57.3333 36.1876 57.3333C36.1686 57.3333 36.1496 57.3333 36.1306 57.3333C36.1115 57.3333 36.0925 57.3333 36.0735 57.3333C36.0545 57.3333 36.0354 57.3333 36.0164 57.3333C35.9973 57.3333 35.9783 57.3333 35.9592 57.3333C35.9402 57.3333 35.9211 57.3333 35.902 57.3333C35.8829 57.3333 35.8639 57.3333 35.8448 57.3333C35.8257 57.3333 35.8066 57.3333 35.7875 57.3333C35.7683 57.3333 35.7492 57.3333 35.7301 57.3333C35.711 57.3333 35.6918 57.3333 35.6727 57.3333C35.6536 57.3333 35.6344 57.3333 35.6153 57.3333C35.5961 57.3333 35.5769 57.3333 35.5578 57.3333C35.5386 57.3333 35.5194 57.3333 35.5002 57.3333C35.481 57.3333 35.4619 57.3333 35.4427 57.3333C35.4235 57.3333 35.4043 57.3333 35.385 57.3333C35.3658 57.3333 35.3466 57.3333 35.3274 57.3333C35.3082 57.3333 35.2889 57.3333 35.2697 57.3333C35.2504 57.3333 35.2312 57.3333 35.2119 57.3333C35.1927 57.3333 35.1734 57.3333 35.1542 57.3333C35.1349 57.3333 35.1156 57.3333 35.0963 57.3333C35.0771 57.3333 35.0578 57.3333 35.0385 57.3333C35.0192 57.3333 34.9999 57.3333 34.9806 57.3333C34.9613 57.3333 34.942 57.3333 34.9227 57.3333C34.9034 57.3333 34.884 57.3333 34.8647 57.3333C34.8454 57.3333 34.8261 57.3333 34.8067 57.3333C34.7874 57.3333 34.768 57.3333 34.7487 57.3333C34.7293 57.3333 34.71 57.3333 34.6906 57.3333C34.6713 57.3333 34.6519 57.3333 34.6325 57.3333C34.6132 57.3333 34.5938 57.3333 34.5744 57.3333C34.555 57.3333 34.5357 57.3333 34.5163 57.3333C34.4969 57.3333 34.4775 57.3333 34.4581 57.3333C34.4387 57.3333 34.4193 57.3333 34.3999 57.3333C34.3805 57.3333 34.3611 57.3333 34.3416 57.3333C34.3222 57.3333 34.3028 57.3333 34.2834 57.3333C34.264 57.3333 34.2445 57.3333 34.2251 57.3333C34.2057 57.3333 34.1862 57.3333 34.1668 57.3333C34.1473 57.3333 34.1279 57.3333 34.1084 57.3333C34.089 57.3333 34.0695 57.3333 34.0501 57.3333C34.0306 57.3333 34.0112 57.3333 33.9917 57.3333C33.9722 57.3333 33.9528 57.3333 33.9333 57.3333C33.9138 57.3333 33.8943 57.3333 33.8749 57.3333C33.8554 57.3333 33.8359 57.3333 33.8164 57.3333C33.7969 57.3333 33.7775 57.3333 33.758 57.3333C33.7385 57.3333 33.719 57.3333 33.6995 57.3333C33.68 57.3333 33.6605 57.3333 33.641 57.3333C33.6215 57.3333 33.602 57.3333 33.5825 57.3333C33.563 57.3333 33.5434 57.3333 33.5239 57.3333C33.5044 57.3333 33.4849 57.3333 33.4654 57.3333C33.4459 57.3333 33.4263 57.3333 33.4068 57.3333C33.3873 57.3333 33.3678 57.3333 33.3482 57.3333C33.3287 57.3333 33.3092 57.3333 33.2897 57.3333C33.2701 57.3333 33.2506 57.3333 33.2311 57.3333C33.2115 57.3333 33.192 57.3333 33.1725 57.3333C33.1529 57.3333 33.1334 57.3333 33.1138 57.3333C33.0943 57.3333 33.0748 57.3333 33.0552 57.3333C33.0357 57.3333 33.0161 57.3333 32.9966 57.3333C32.977 57.3333 32.9575 57.3333 32.9379 57.3333C32.9184 57.3333 32.8988 57.3333 32.8793 57.3333C32.8597 57.3333 32.8402 57.3333 32.8206 57.3333C32.8011 57.3333 32.7815 57.3333 32.762 57.3333C32.7424 57.3333 32.7228 57.3333 32.7033 57.3333C32.6837 57.3333 32.6642 57.3333 32.6446 57.3333C32.6251 57.3333 32.6055 57.3333 32.5859 57.3333C32.5664 57.3333 32.5468 57.3333 32.5273 57.3333C32.5077 57.3333 32.4882 57.3333 32.4686 57.3333C32.449 57.3333 32.4295 57.3333 32.4099 57.3333C32.3904 57.3333 32.3708 57.3333 32.3512 57.3333C32.3317 57.3333 32.3121 57.3333 32.2926 57.3333C32.273 57.3333 32.2535 57.3333 32.2339 57.3333C32.2143 57.3333 32.1948 57.3333 32.1752 57.3333C32.1557 57.3333 32.1361 57.3333 32.1166 57.3333C32.097 57.3333 32.0775 57.3333 32.0579 57.3333C32.0384 57.3333 32.0188 57.3333 31.9992 57.3333C31.9797 57.3333 31.9601 57.3333 31.9406 57.3333C31.9211 57.3333 31.9015 57.3333 31.882 57.3333C31.8624 57.3333 31.8429 57.3333 31.8233 57.3333C31.8038 57.3333 31.7842 57.3333 31.7647 57.3333C31.7452 57.3333 31.7256 57.3333 31.7061 57.3333C31.6866 57.3333 31.667 57.3333 31.6475 57.3333C31.628 57.3333 31.6084 57.3333 31.5889 57.3333C31.5694 57.3333 31.5498 57.3333 31.5303 57.3333C31.5108 57.3333 31.4913 57.3333 31.4717 57.3333C31.4522 57.3333 31.4327 57.3333 31.4132 57.3333C31.3937 57.3333 31.3742 57.3333 31.3547 57.3333C31.3351 57.3333 31.3156 57.3333 31.2961 57.3333C31.2766 57.3333 31.2571 57.3333 31.2376 57.3333C31.2181 57.3333 31.1986 57.3333 31.1791 57.3333C31.1596 57.3333 31.1402 57.3333 31.1207 57.3333C31.1012 57.3333 31.0817 57.3333 31.0622 57.3333C31.0427 57.3333 31.0233 57.3333 31.0038 57.3333C30.9843 57.3333 30.9648 57.3333 30.9454 57.3333C30.9259 57.3333 30.9064 57.3333 30.887 57.3333C30.8675 57.3333 30.8481 57.3333 30.8286 57.3333C30.8091 57.3333 30.7897 57.3333 30.7703 57.3333C30.7508 57.3333 30.7314 57.3333 30.7119 57.3333C30.6925 57.3333 30.6731 57.3333 30.6536 57.3333C30.6342 57.3333 30.6148 57.3333 30.5954 57.3333C30.5759 57.3333 30.5565 57.3333 30.5371 57.3333C30.5177 57.3333 30.4983 57.3333 30.4789 57.3333C30.4595 57.3333 30.4401 57.3333 30.4207 57.3333C30.4013 57.3333 30.3819 57.3333 30.3625 57.3333C30.3431 57.3333 30.3238 57.3333 30.3044 57.3333C30.285 57.3333 30.2657 57.3333 30.2463 57.3333C30.2269 57.3333 30.2076 57.3333 30.1882 57.3333C30.1689 57.3333 30.1495 57.3333 30.1302 57.3333C30.1108 57.3333 30.0915 57.3333 30.0722 57.3333C30.0528 57.3333 30.0335 57.3333 30.0142 57.3333C29.9949 57.3333 29.9756 57.3333 29.9563 57.3333C29.9369 57.3333 29.9176 57.3333 29.8983 57.3333C29.879 57.3333 29.8598 57.3333 29.8405 57.3333C29.8212 57.3333 29.8019 57.3333 29.7826 57.3333C29.7634 57.3333 29.7441 57.3333 29.7248 57.3333C29.7056 57.3333 29.6863 57.3333 29.6671 57.3333C29.6478 57.3333 29.6286 57.3333 29.6094 57.3333C29.5901 57.3333 29.5709 57.3333 29.5517 57.3333C29.5325 57.3333 29.5133 57.3333 29.4941 57.3333C29.4749 57.3333 29.4557 57.3333 29.4365 57.3333C29.4173 57.3333 29.3981 57.3333 29.3789 57.3333C29.3597 57.3333 29.3406 57.3333 29.3214 57.3333C29.3022 57.3333 29.2831 57.3333 29.2639 57.3333C29.2448 57.3333 29.2257 57.3333 29.2065 57.3333C29.1874 57.3333 29.1683 57.3333 29.1491 57.3333C29.13 57.3333 29.1109 57.3333 29.0918 57.3333C29.0727 57.3333 29.0536 57.3333 29.0345 57.3333C29.0155 57.3333 28.9964 57.3333 28.9773 57.3333C28.9582 57.3333 28.9392 57.3333 28.9201 57.3333C28.9011 57.3333 28.882 57.3333 28.863 57.3333C28.844 57.3333 28.8249 57.3333 28.8059 57.3333C28.7869 57.3333 28.7679 57.3333 28.7489 57.3333C28.7299 57.3333 28.7109 57.3333 28.6919 57.3333C28.6729 57.3333 28.6539 57.3333 28.635 57.3333C28.616 57.3333 28.5971 57.3333 28.5781 57.3333C28.5592 57.3333 28.5402 57.3333 28.5213 57.3333C28.5024 57.3333 28.4834 57.3333 28.4645 57.3333C28.4456 57.3333 28.4267 57.3333 28.4078 57.3333C28.3889 57.3333 28.3701 57.3333 28.3512 57.3333C28.3323 57.3333 28.3135 57.3333 28.2946 57.3333C28.2757 57.3333 28.2569 57.3333 28.2381 57.3333C28.2192 57.3333 28.2004 57.3333 28.1816 57.3333C28.1628 57.3333 28.144 57.3333 28.1252 57.3333C28.1064 57.3333 28.0876 57.3333 28.0689 57.3333C28.0501 57.3333 28.0313 57.3333 28.0126 57.3333C27.9938 57.3333 27.9751 57.3333 27.9563 57.3333C27.9376 57.3333 27.9189 57.3333 27.9002 57.3333C27.8815 57.3333 27.8628 57.3333 27.8441 57.3333C27.8254 57.3333 27.8067 57.3333 27.7881 57.3333C27.7694 57.3333 27.7508 57.3333 27.7321 57.3333C27.7135 57.3333 27.6948 57.3333 27.6762 57.3333C27.6576 57.3333 27.639 57.3333 27.6204 57.3333C27.6018 57.3333 27.5832 57.3333 27.5646 57.3333C27.5461 57.3333 27.5275 57.3333 27.509 57.3333C27.4904 57.3333 27.4719 57.3333 27.4533 57.3333C27.4348 57.3333 27.4163 57.3333 27.3978 57.3333C27.3793 57.3333 27.3608 57.3333 27.3423 57.3333C27.3238 57.3333 27.3054 57.3333 27.2869 57.3333C27.2685 57.3333 27.25 57.3333 27.2316 57.3333C27.2132 57.3333 27.1948 57.3333 27.1763 57.3333C27.1579 57.3333 27.1396 57.3333 27.1212 57.3333C27.1028 57.3333 27.0844 57.3333 27.0661 57.3333C27.0477 57.3333 27.0294 57.3333 27.0111 57.3333C26.9927 57.3333 26.9744 57.3333 26.9561 57.3333C26.9378 57.3333 26.9195 57.3333 26.9012 57.3333C26.883 57.3333 26.8647 57.3333 26.8465 57.3333C26.8282 57.3333 26.81 57.3333 26.7918 57.3333C26.7735 57.3333 26.7553 57.3333 26.7371 57.3333C26.7189 57.3333 26.7008 57.3333 26.6826 57.3333C26.6644 57.3333 26.6463 57.3333 26.6281 57.3333C26.61 57.3333 26.5919 57.3333 26.5738 57.3333C26.5556 57.3333 26.5375 57.3333 26.5195 57.3333C26.5014 57.3333 26.4833 57.3333 26.4653 57.3333C26.4472 57.3333 26.4292 57.3333 26.4111 57.3333C26.3931 57.3333 26.3751 57.3333 26.3571 57.3333C26.3391 57.3333 26.3211 57.3333 26.3032 57.3333C26.2852 57.3333 26.2672 57.3333 26.2493 57.3333C26.2314 57.3333 26.2134 57.3333 26.1955 57.3333C26.1776 57.3333 26.1597 57.3333 26.1419 57.3333C26.124 57.3333 26.1061 57.3333 26.0883 57.3333C26.0704 57.3333 26.0526 57.3333 26.0348 57.3333C26.017 57.3333 25.9992 57.3333 25.9814 57.3333C25.9636 57.3333 25.9458 57.3333 25.9281 57.3333C25.9103 57.3333 25.8926 57.3333 25.8749 57.3333C25.8571 57.3333 25.8394 57.3333 25.8218 57.3333C25.8041 57.3333 25.7864 57.3333 25.7687 57.3333C25.7511 57.3333 25.7334 57.3333 25.7158 57.3333C25.6982 57.3333 25.6806 57.3333 25.663 57.3333C25.6454 57.3333 25.6278 57.3333 25.6103 57.3333C25.5927 57.3333 25.5751 57.3333 25.5576 57.3333C25.5401 57.3333 25.5226 57.3333 25.5051 57.3333C25.4876 57.3333 25.4701 57.3333 25.4527 57.3333C25.4352 57.3333 25.4178 57.3333 25.4003 57.3333C25.3829 57.3333 25.3655 57.3333 25.3481 57.3333C25.3307 57.3333 25.3134 57.3333 25.296 57.3333C25.2786 57.3333 25.2613 57.3333 25.244 57.3333C25.2267 57.3333 25.2094 57.3333 25.1921 57.3333C25.1748 57.3333 25.1575 57.3333 25.1403 57.3333C25.123 57.3333 25.1058 57.3333 25.0886 57.3333C25.0714 57.3333 25.0542 57.3333 25.037 57.3333C25.0198 57.3333 25.0026 57.3333 24.9855 57.3333C24.9684 57.3333 24.9512 57.3333 24.9341 57.3333C24.917 57.3333 24.8999 57.3333 24.8829 57.3333C24.8658 57.3333 24.8487 57.3333 24.8317 57.3333C24.8147 57.3333 24.7977 57.3333 24.7807 57.3333C24.7637 57.3333 24.7467 57.3333 24.7297 57.3333C24.7128 57.3333 24.6958 57.3333 24.6789 57.3333C24.662 57.3333 24.6451 57.3333 24.6282 57.3333C24.6113 57.3333 24.5945 57.3333 24.5776 57.3333C24.5608 57.3333 24.544 57.3333 24.5272 57.3333C24.5104 57.3333 24.4936 57.3333 24.4768 57.3333C24.4601 57.3333 24.4433 57.3333 24.4266 57.3333C24.4099 57.3333 24.3932 57.3333 24.3765 57.3333C24.3598 57.3333 24.3431 57.3333 24.3265 57.3333C24.3098 57.3333 24.2932 57.3333 24.2766 57.3333C24.26 57.3333 24.2434 57.3333 24.2268 57.3333C24.2103 57.3333 24.1937 57.3333 24.1772 57.3333C24.1607 57.3333 24.1442 57.3333 24.1277 57.3333C24.1112 57.3333 24.0947 57.3333 24.0783 57.3333C24.0618 57.3333 24.0454 57.3333 24.029 57.3333C24.0126 57.3333 23.9962 57.3333 23.9799 57.3333C23.9635 57.3333 23.9472 57.3333 23.9309 57.3333C23.9145 57.3333 23.8982 57.3333 23.882 57.3333C23.8657 57.3333 23.8494 57.3333 23.8332 57.3333C23.817 57.3333 23.8008 57.3333 23.7846 57.3333C23.7684 57.3333 23.7522 57.3333 23.7361 57.3333C23.7199 57.3333 23.7038 57.3333 23.6877 57.3333C23.6716 57.3333 23.6555 57.3333 23.6394 57.3333C23.6234 57.3333 23.6073 57.3333 23.5913 57.3333C23.5753 57.3333 23.5593 57.3333 23.5434 57.3333C23.5274 57.3333 23.5114 57.3333 23.4955 57.3333C23.4796 57.3333 23.4637 57.3333 23.4478 57.3333C23.4319 57.3333 23.416 57.3333 23.4002 57.3333C23.3844 57.3333 23.3686 57.3333 23.3528 57.3333C23.337 57.3333 23.3212 57.3333 23.3055 57.3333C23.2897 57.3333 23.274 57.3333 23.2583 57.3333C23.2426 57.3333 23.2269 57.3333 23.2112 57.3333C23.1956 57.3333 23.18 57.3333 23.1644 57.3333C23.1487 57.3333 23.1332 57.3333 23.1176 57.3333C23.102 57.3333 23.0865 57.3333 23.071 57.3333C23.0555 57.3333 23.04 57.3333 23.0245 57.3333C23.009 57.3333 22.9936 57.3333 22.9782 57.3333C22.9628 57.3333 22.9474 57.3333 22.932 57.3333C22.9166 57.3333 22.9013 57.3333 22.8859 57.3333C22.8706 57.3333 22.8553 57.3333 22.84 57.3333C22.8248 57.3333 22.8095 57.3333 22.7943 57.3333C22.7791 57.3333 22.7639 57.3333 22.7487 57.3333C22.7335 57.3333 22.7184 57.3333 22.7032 57.3333C22.6881 57.3333 22.673 57.3333 22.6579 57.3333C22.6428 57.3333 22.6278 57.3333 22.6127 57.3333C22.5977 57.3333 22.5827 57.3333 22.5677 57.3333C22.5527 57.3333 22.5378 57.3333 22.5229 57.3333C22.5079 57.3333 22.493 57.3333 22.4781 57.3333C22.4633 57.3333 22.4484 57.3333 22.4336 57.3333C22.4188 57.3333 22.404 57.3333 22.3892 57.3333C22.3744 57.3333 22.3596 57.3333 22.3449 57.3333C22.3302 57.3333 22.3155 57.3333 22.3008 57.3333C22.2861 57.3333 22.2715 57.3333 22.2569 57.3333C22.2422 57.3333 22.2277 57.3333 22.2131 57.3333C22.1985 57.3333 22.184 57.3333 22.1694 57.3333C22.1549 57.3333 22.1404 57.3333 22.126 57.3333C22.1115 57.3333 22.0971 57.3333 22.0827 57.3333C22.0682 57.3333 22.0539 57.3333 22.0395 57.3333C22.0251 57.3333 22.0108 57.3333 21.9965 57.3333C21.9822 57.3333 21.9679 57.3333 21.9537 57.3333C21.9394 57.3333 21.9252 57.3333 21.911 57.3333C21.8968 57.3333 21.8826 57.3333 21.8685 57.3333C21.8543 57.3333 21.8402 57.3333 21.8261 57.3333C21.812 57.3333 21.798 57.3333 21.7839 57.3333C21.7699 57.3333 21.7559 57.3333 21.7419 57.3333C21.7279 57.3333 21.714 57.3333 21.7001 57.3333C21.6861 57.3333 21.6722 57.3333 21.6584 57.3333C21.6445 57.3333 21.6307 57.3333 21.6169 57.3333C21.6031 57.3333 21.5893 57.3333 21.5755 57.3333C21.5618 57.3333 21.548 57.3333 21.5343 57.3333C21.5206 57.3333 21.507 57.3333 21.4933 57.3333C21.4797 57.3333 21.4661 57.3333 21.4525 57.3333C21.4389 57.3333 21.4253 57.3333 21.4118 57.3333C21.3983 57.3333 21.3848 57.3333 21.3713 57.3333C21.3578 57.3333 21.3444 57.3333 21.331 57.3333C21.3176 57.3333 21.3042 57.3333 21.2908 57.3333C21.2775 57.3333 21.2642 57.3333 21.2509 57.3333C21.2376 57.3333 21.2243 57.3333 21.2111 57.3333C21.1978 57.3333 21.1846 57.3333 21.1714 57.3333C21.1583 57.3333 21.1451 57.3333 21.132 57.3333C21.1189 57.3333 21.1058 57.3333 21.0927 57.3333C21.0797 57.3333 21.0666 57.3333 21.0536 57.3333C21.0406 57.3333 21.0277 57.3333 21.0147 57.3333C21.0018 57.3333 20.9889 57.3333 20.976 57.3333C20.9631 57.3333 20.9503 57.3333 20.9375 57.3333C20.9247 57.3333 20.9119 57.3333 20.8991 57.3333C20.8863 57.3333 20.8736 57.3333 20.8609 57.3333C20.8482 57.3333 20.8356 57.3333 20.8229 57.3333C20.8103 57.3333 20.7977 57.3333 20.7851 57.3333C20.7725 57.3333 20.76 57.3333 20.7475 57.3333C20.735 57.3333 20.7225 57.3333 20.7101 57.3333C20.6976 57.3333 20.6852 57.3333 20.6728 57.3333C20.6604 57.3333 20.6481 57.3333 20.6357 57.3333C20.6234 57.3333 20.6111 57.3333 20.5989 57.3333C20.5866 57.3333 20.5744 57.3333 20.5622 57.3333C20.55 57.3333 20.5378 57.3333 20.5257 57.3333C20.5136 57.3333 20.5015 57.3333 20.4894 57.3333C20.4773 57.3333 20.4653 57.3333 20.4533 57.3333C20.4413 57.3333 20.4293 57.3333 20.4174 57.3333C20.4054 57.3333 20.3935 57.3333 20.3816 57.3333C20.3698 57.3333 20.3579 57.3333 20.3461 57.3333C20.3343 57.3333 20.3225 57.3333 20.3108 57.3333C20.299 57.3333 20.2873 57.3333 20.2756 57.3333C20.264 57.3333 20.2523 57.3333 20.2407 57.3333C20.2291 57.3333 20.2175 57.3333 20.206 57.3333C20.1944 57.3333 20.1829 57.3333 20.1714 57.3333C20.1599 57.3333 20.1485 57.3333 20.1371 57.3333C20.1257 57.3333 20.1143 57.3333 20.1029 57.3333C20.0916 57.3333 20.0803 57.3333 20.069 57.3333C20.0577 57.3333 20.0465 57.3333 20.0353 57.3333C20.024 57.3333 20.0129 57.3333 20.0017 57.3333C19.9906 57.3333 19.9795 57.3333 19.9684 57.3333C19.9573 57.3333 19.9463 57.3333 19.9353 57.3333C19.9242 57.3333 19.9133 57.3333 19.9023 57.3333C19.8914 57.3333 19.8805 57.3333 19.8696 57.3333C19.8587 57.3333 19.8479 57.3333 19.8371 57.3333C19.8263 57.3333 19.8155 57.3333 19.8048 57.3333C19.7941 57.3333 19.7834 57.3333 19.7727 57.3333C19.762 57.3333 19.7514 57.3333 19.7408 57.3333C19.7302 57.3333 19.7197 57.3333 19.7092 57.3333C19.6986 57.3333 19.6881 57.3333 19.6777 57.3333C19.6672 57.3333 19.6568 57.3333 19.6464 57.3333C19.6361 57.3333 19.6257 57.3333 19.6154 57.3333C19.6051 57.3333 19.5948 57.3333 19.5846 57.3333C19.5743 57.3333 19.5641 57.3333 19.554 57.3333C19.5438 57.3333 19.5337 57.3333 19.5236 57.3333C19.5135 57.3333 19.5034 57.3333 19.4934 57.3333C19.4834 57.3333 19.4734 57.3333 19.4634 57.3333C19.4535 57.3333 19.4436 57.3333 19.4337 57.3333C19.4238 57.3333 19.414 57.3333 19.4042 57.3333C19.3944 57.3333 19.3846 57.3333 19.3749 57.3333C19.3651 57.3333 19.3554 57.3333 19.3458 57.3333C19.3361 57.3333 19.3265 57.3333 19.3169 57.3333C19.3073 57.3333 19.2978 57.3333 19.2883 57.3333C19.2788 57.3333 19.2693 57.3333 19.2599 57.3333C19.2504 57.3333 19.241 57.3333 19.2317 57.3333C19.2223 57.3333 19.213 57.3333 19.2037 57.3333C19.1944 57.3333 19.1852 57.3333 19.1759 57.3333C19.1667 57.3333 19.1576 57.3333 19.1484 57.3333C19.1393 57.3333 19.1302 57.3333 19.1211 57.3333C19.1121 57.3333 19.103 57.3333 19.0941 57.3333C19.0851 57.3333 19.0761 57.3333 19.0672 57.3333C19.0583 57.3333 19.0494 57.3333 19.0406 57.3333C19.0318 57.3333 19.023 57.3333 19.0142 57.3333C19.0055 57.3333 18.9968 57.3333 18.9881 57.3333C18.9794 57.3333 18.9708 57.3333 18.9622 57.3333C18.9536 57.3333 18.945 57.3333 18.9365 57.3333C18.928 57.3333 18.9195 57.3333 18.911 57.3333C18.9026 57.3333 18.8942 57.3333 18.8858 57.3333C18.8775 57.3333 18.8691 57.3333 18.8608 57.3333C18.8526 57.3333 18.8443 57.3333 18.8361 57.3333C18.8279 57.3333 18.8197 57.3333 18.8116 57.3333C18.8035 57.3333 18.7954 57.3333 18.7873 57.3333C18.7793 57.3333 18.7713 57.3333 18.7633 57.3333C18.7553 57.3333 18.7474 57.3333 18.7395 57.3333C18.7316 57.3333 18.7237 57.3333 18.7159 57.3333C18.7081 57.3333 18.7004 57.3333 18.6926 57.3333C18.6849 57.3333 18.6772 57.3333 18.6696 57.3333C18.6619 57.3333 18.6543 57.3333 18.6467 57.3333C18.6392 57.3333 18.6316 57.3333 18.6241 57.3333C18.6167 57.3333 18.6092 57.3333 18.6018 57.3333C18.5944 57.3333 18.587 57.3333 18.5797 57.3333C18.5724 57.3333 18.5651 57.3333 18.5578 57.3333C18.5506 57.3333 18.5434 57.3333 18.5362 57.3333C18.5291 57.3333 18.522 57.3333 18.5149 57.3333C18.5078 57.3333 18.5008 57.3333 18.4938 57.3333C18.4868 57.3333 18.4798 57.3333 18.4729 57.3333C18.466 57.3333 18.4591 57.3333 18.4523 57.3333C18.4455 57.3333 18.4387 57.3333 18.4319 57.3333C18.4252 57.3333 18.4185 57.3333 18.4118 57.3333C18.4052 57.3333 18.3986 57.3333 18.392 57.3333C18.3854 57.3333 18.3789 57.3333 18.3724 57.3333C18.3659 57.3333 18.3594 57.3333 18.353 57.3333C18.3466 57.3333 18.3403 57.3333 18.3339 57.3333C18.3276 57.3333 18.3213 57.3333 18.3151 57.3333C18.3089 57.3333 18.3027 57.3333 18.2965 57.3333C18.2904 57.3333 18.2843 57.3333 18.2782 57.3333C18.2721 57.3333 18.2661 57.3333 18.2601 57.3333C18.2541 57.3333 18.2482 57.3333 18.2423 57.3333C18.2364 57.3333 18.2306 57.3333 18.2248 57.3333C18.219 57.3333 18.2132 57.3333 18.2075 57.3333C18.2018 57.3333 18.1961 57.3333 18.1904 57.3333C18.1848 57.3333 18.1792 57.3333 18.1737 57.3333C18.1681 57.3333 18.1626 57.3333 18.1572 57.3333C18.1517 57.3333 18.1463 57.3333 18.1409 57.3333C18.1356 57.3333 18.1302 57.3333 18.125 57.3333C18.1197 57.3333 18.1144 57.3333 18.1093 57.3333C18.1041 57.3333 18.0989 57.3333 18.0938 57.3333C18.0887 57.3333 18.0837 57.3333 18.0786 57.3333C18.0736 57.3333 18.0687 57.3333 18.0637 57.3333C18.0588 57.3333 18.0539 57.3333 18.0491 57.3333C18.0443 57.3333 18.0395 57.3333 18.0347 57.3333C18.03 57.3333 18.0253 57.3333 18.0206 57.3333C18.016 57.3333 18.0114 57.3333 18.0068 57.3333C18.0022 57.3333 17.9977 57.3333 17.9932 57.3333C17.9888 57.3333 17.9843 57.3333 17.98 57.3333C17.9756 57.3333 17.9712 57.3333 17.967 57.3333C17.9627 57.3333 17.9584 57.3333 17.9542 57.3333C17.95 57.3333 17.9459 57.3333 17.9418 57.3333C17.9376 57.3333 17.9336 57.3333 17.9296 57.3333C17.9256 57.3333 17.9216 57.3333 17.9177 57.3333C17.9137 57.3333 17.9099 57.3333 17.906 57.3333C17.9022 57.3333 17.8984 57.3333 17.8947 57.3333C17.891 57.3333 17.8873 57.3333 17.8836 57.3333C17.88 57.3333 17.8764 57.3333 17.8728 57.3333C17.8693 57.3333 17.8658 57.3333 17.8623 57.3333C17.8589 57.3333 17.8555 57.3333 17.8521 57.3333C17.8487 57.3333 17.8454 57.3333 17.8421 57.3333C17.8389 57.3333 17.8357 57.3333 17.8325 57.3333C17.8293 57.3333 17.8262 57.3333 17.8231 57.3333C17.82 57.3333 17.817 57.3333 17.814 57.3333C17.811 57.3333 17.8081 57.3333 17.8052 57.3333C17.8023 57.3333 17.7995 57.3333 17.7967 57.3333C17.7939 57.3333 17.7912 57.3333 17.7885 57.3333C17.7858 57.3333 17.7831 57.3333 17.7805 57.3333C17.7779 57.3333 17.7754 57.3333 17.7729 57.3333C17.7704 57.3333 17.7679 57.3333 17.7655 57.3333C17.7631 57.3333 17.7607 57.3333 17.7584 57.3333C17.7561 57.3333 17.7539 57.3333 17.7516 57.3333C17.7494 57.3333 17.7473 57.3333 17.7452 57.3333C17.743 57.3333 17.741 57.3333 17.739 57.3333C17.7369 57.3333 17.735 57.3333 17.7331 57.3333C17.7311 57.3333 17.7293 57.3333 17.7275 57.3333C17.7256 57.3333 17.7239 57.3333 17.7221 57.3333C17.7204 57.3333 17.7188 57.3333 17.7171 57.3333C17.7155 57.3333 17.7139 57.3333 17.7124 57.3333C17.7109 57.3333 17.7094 57.3333 17.708 57.3333C17.7066 57.3333 17.7052 57.3333 17.7039 57.3333C17.7026 57.3333 17.7013 57.3333 17.7001 57.3333C17.6988 57.3333 17.6977 57.3333 17.6965 57.3333C17.6954 57.3333 17.6943 57.3333 17.6933 57.3333C17.6923 57.3333 17.6913 57.3333 17.6904 57.3333C17.6895 57.3333 17.6886 57.3333 17.6878 57.3333C17.687 57.3333 17.6862 57.3333 17.6855 57.3333C17.6848 57.3333 17.6841 57.3333 17.6835 57.3333C17.6829 57.3333 17.6823 57.3333 17.6818 57.3333C17.6813 57.3333 17.6808 57.3333 17.6804 57.3333C17.68 57.3333 17.6796 57.3333 17.6793 57.3333C17.679 57.3333 17.6788 57.3333 17.6785 57.3333C17.6783 57.3333 17.6782 57.3333 17.6781 57.3333C17.678 57.3333 17.6779 57.3333 17.6779 58.3333C17.6779 59.3333 17.678 59.3333 17.6781 59.3333C17.6782 59.3333 17.6783 59.3333 17.6785 59.3333C17.6788 59.3333 17.679 59.3333 17.6793 59.3333C17.6796 59.3333 17.68 59.3333 17.6804 59.3333C17.6808 59.3333 17.6813 59.3333 17.6818 59.3333C17.6823 59.3333 17.6829 59.3333 17.6835 59.3333C17.6841 59.3333 17.6848 59.3333 17.6855 59.3333C17.6862 59.3333 17.687 59.3333 17.6878 59.3333C17.6886 59.3333 17.6895 59.3333 17.6904 59.3333C17.6913 59.3333 17.6923 59.3333 17.6933 59.3333C17.6943 59.3333 17.6954 59.3333 17.6965 59.3333C17.6977 59.3333 17.6988 59.3333 17.7001 59.3333C17.7013 59.3333 17.7026 59.3333 17.7039 59.3333C17.7052 59.3333 17.7066 59.3333 17.708 59.3333C17.7094 59.3333 17.7109 59.3333 17.7124 59.3333C17.7139 59.3333 17.7155 59.3333 17.7171 59.3333C17.7188 59.3333 17.7204 59.3333 17.7221 59.3333C17.7239 59.3333 17.7256 59.3333 17.7275 59.3333C17.7293 59.3333 17.7311 59.3333 17.7331 59.3333C17.735 59.3333 17.7369 59.3333 17.739 59.3333C17.741 59.3333 17.743 59.3333 17.7452 59.3333C17.7473 59.3333 17.7494 59.3333 17.7516 59.3333C17.7539 59.3333 17.7561 59.3333 17.7584 59.3333C17.7607 59.3333 17.7631 59.3333 17.7655 59.3333C17.7679 59.3333 17.7704 59.3333 17.7729 59.3333C17.7754 59.3333 17.7779 59.3333 17.7805 59.3333C17.7831 59.3333 17.7858 59.3333 17.7885 59.3333C17.7912 59.3333 17.7939 59.3333 17.7967 59.3333C17.7995 59.3333 17.8023 59.3333 17.8052 59.3333C17.8081 59.3333 17.811 59.3333 17.814 59.3333C17.817 59.3333 17.82 59.3333 17.8231 59.3333C17.8262 59.3333 17.8293 59.3333 17.8325 59.3333C17.8357 59.3333 17.8389 59.3333 17.8421 59.3333C17.8454 59.3333 17.8487 59.3333 17.8521 59.3333C17.8555 59.3333 17.8589 59.3333 17.8623 59.3333C17.8658 59.3333 17.8693 59.3333 17.8728 59.3333C17.8764 59.3333 17.88 59.3333 17.8836 59.3333C17.8873 59.3333 17.891 59.3333 17.8947 59.3333C17.8984 59.3333 17.9022 59.3333 17.906 59.3333C17.9099 59.3333 17.9137 59.3333 17.9177 59.3333C17.9216 59.3333 17.9256 59.3333 17.9296 59.3333C17.9336 59.3333 17.9376 59.3333 17.9418 59.3333C17.9459 59.3333 17.95 59.3333 17.9542 59.3333C17.9584 59.3333 17.9627 59.3333 17.967 59.3333C17.9712 59.3333 17.9756 59.3333 17.98 59.3333C17.9843 59.3333 17.9888 59.3333 17.9932 59.3333C17.9977 59.3333 18.0022 59.3333 18.0068 59.3333C18.0114 59.3333 18.016 59.3333 18.0206 59.3333C18.0253 59.3333 18.03 59.3333 18.0347 59.3333C18.0395 59.3333 18.0443 59.3333 18.0491 59.3333C18.0539 59.3333 18.0588 59.3333 18.0637 59.3333C18.0687 59.3333 18.0736 59.3333 18.0786 59.3333C18.0837 59.3333 18.0887 59.3333 18.0938 59.3333C18.0989 59.3333 18.1041 59.3333 18.1093 59.3333C18.1144 59.3333 18.1197 59.3333 18.125 59.3333C18.1302 59.3333 18.1356 59.3333 18.1409 59.3333C18.1463 59.3333 18.1517 59.3333 18.1572 59.3333C18.1626 59.3333 18.1681 59.3333 18.1737 59.3333C18.1792 59.3333 18.1848 59.3333 18.1904 59.3333C18.1961 59.3333 18.2018 59.3333 18.2075 59.3333C18.2132 59.3333 18.219 59.3333 18.2248 59.3333C18.2306 59.3333 18.2364 59.3333 18.2423 59.3333C18.2482 59.3333 18.2541 59.3333 18.2601 59.3333C18.2661 59.3333 18.2721 59.3333 18.2782 59.3333C18.2843 59.3333 18.2904 59.3333 18.2965 59.3333C18.3027 59.3333 18.3089 59.3333 18.3151 59.3333C18.3213 59.3333 18.3276 59.3333 18.3339 59.3333C18.3403 59.3333 18.3466 59.3333 18.353 59.3333C18.3594 59.3333 18.3659 59.3333 18.3724 59.3333C18.3789 59.3333 18.3854 59.3333 18.392 59.3333C18.3986 59.3333 18.4052 59.3333 18.4118 59.3333C18.4185 59.3333 18.4252 59.3333 18.4319 59.3333C18.4387 59.3333 18.4455 59.3333 18.4523 59.3333C18.4591 59.3333 18.466 59.3333 18.4729 59.3333C18.4798 59.3333 18.4868 59.3333 18.4938 59.3333C18.5008 59.3333 18.5078 59.3333 18.5149 59.3333C18.522 59.3333 18.5291 59.3333 18.5362 59.3333C18.5434 59.3333 18.5506 59.3333 18.5578 59.3333C18.5651 59.3333 18.5724 59.3333 18.5797 59.3333C18.587 59.3333 18.5944 59.3333 18.6018 59.3333C18.6092 59.3333 18.6167 59.3333 18.6241 59.3333C18.6316 59.3333 18.6392 59.3333 18.6467 59.3333C18.6543 59.3333 18.6619 59.3333 18.6696 59.3333C18.6772 59.3333 18.6849 59.3333 18.6926 59.3333C18.7004 59.3333 18.7081 59.3333 18.7159 59.3333C18.7237 59.3333 18.7316 59.3333 18.7395 59.3333C18.7474 59.3333 18.7553 59.3333 18.7633 59.3333C18.7713 59.3333 18.7793 59.3333 18.7873 59.3333C18.7954 59.3333 18.8035 59.3333 18.8116 59.3333C18.8197 59.3333 18.8279 59.3333 18.8361 59.3333C18.8443 59.3333 18.8526 59.3333 18.8608 59.3333C18.8691 59.3333 18.8775 59.3333 18.8858 59.3333C18.8942 59.3333 18.9026 59.3333 18.911 59.3333C18.9195 59.3333 18.928 59.3333 18.9365 59.3333C18.945 59.3333 18.9536 59.3333 18.9622 59.3333C18.9708 59.3333 18.9794 59.3333 18.9881 59.3333C18.9968 59.3333 19.0055 59.3333 19.0142 59.3333C19.023 59.3333 19.0318 59.3333 19.0406 59.3333C19.0494 59.3333 19.0583 59.3333 19.0672 59.3333C19.0761 59.3333 19.0851 59.3333 19.0941 59.3333C19.103 59.3333 19.1121 59.3333 19.1211 59.3333C19.1302 59.3333 19.1393 59.3333 19.1484 59.3333C19.1576 59.3333 19.1667 59.3333 19.1759 59.3333C19.1852 59.3333 19.1944 59.3333 19.2037 59.3333C19.213 59.3333 19.2223 59.3333 19.2317 59.3333C19.241 59.3333 19.2504 59.3333 19.2599 59.3333C19.2693 59.3333 19.2788 59.3333 19.2883 59.3333C19.2978 59.3333 19.3073 59.3333 19.3169 59.3333C19.3265 59.3333 19.3361 59.3333 19.3458 59.3333C19.3554 59.3333 19.3651 59.3333 19.3749 59.3333C19.3846 59.3333 19.3944 59.3333 19.4042 59.3333C19.414 59.3333 19.4238 59.3333 19.4337 59.3333C19.4436 59.3333 19.4535 59.3333 19.4634 59.3333C19.4734 59.3333 19.4834 59.3333 19.4934 59.3333C19.5034 59.3333 19.5135 59.3333 19.5236 59.3333C19.5337 59.3333 19.5438 59.3333 19.554 59.3333C19.5641 59.3333 19.5743 59.3333 19.5846 59.3333C19.5948 59.3333 19.6051 59.3333 19.6154 59.3333C19.6257 59.3333 19.6361 59.3333 19.6464 59.3333C19.6568 59.3333 19.6672 59.3333 19.6777 59.3333C19.6881 59.3333 19.6986 59.3333 19.7092 59.3333C19.7197 59.3333 19.7302 59.3333 19.7408 59.3333C19.7514 59.3333 19.762 59.3333 19.7727 59.3333C19.7834 59.3333 19.7941 59.3333 19.8048 59.3333C19.8155 59.3333 19.8263 59.3333 19.8371 59.3333C19.8479 59.3333 19.8587 59.3333 19.8696 59.3333C19.8805 59.3333 19.8914 59.3333 19.9023 59.3333C19.9133 59.3333 19.9242 59.3333 19.9353 59.3333C19.9463 59.3333 19.9573 59.3333 19.9684 59.3333C19.9795 59.3333 19.9906 59.3333 20.0017 59.3333C20.0129 59.3333 20.024 59.3333 20.0353 59.3333C20.0465 59.3333 20.0577 59.3333 20.069 59.3333C20.0803 59.3333 20.0916 59.3333 20.1029 59.3333C20.1143 59.3333 20.1257 59.3333 20.1371 59.3333C20.1485 59.3333 20.1599 59.3333 20.1714 59.3333C20.1829 59.3333 20.1944 59.3333 20.206 59.3333C20.2175 59.3333 20.2291 59.3333 20.2407 59.3333C20.2523 59.3333 20.264 59.3333 20.2756 59.3333C20.2873 59.3333 20.299 59.3333 20.3108 59.3333C20.3225 59.3333 20.3343 59.3333 20.3461 59.3333C20.3579 59.3333 20.3698 59.3333 20.3816 59.3333C20.3935 59.3333 20.4054 59.3333 20.4174 59.3333C20.4293 59.3333 20.4413 59.3333 20.4533 59.3333C20.4653 59.3333 20.4773 59.3333 20.4894 59.3333C20.5015 59.3333 20.5136 59.3333 20.5257 59.3333C20.5378 59.3333 20.55 59.3333 20.5622 59.3333C20.5744 59.3333 20.5866 59.3333 20.5989 59.3333C20.6111 59.3333 20.6234 59.3333 20.6357 59.3333C20.6481 59.3333 20.6604 59.3333 20.6728 59.3333C20.6852 59.3333 20.6976 59.3333 20.7101 59.3333C20.7225 59.3333 20.735 59.3333 20.7475 59.3333C20.76 59.3333 20.7725 59.3333 20.7851 59.3333C20.7977 59.3333 20.8103 59.3333 20.8229 59.3333C20.8356 59.3333 20.8482 59.3333 20.8609 59.3333C20.8736 59.3333 20.8863 59.3333 20.8991 59.3333C20.9119 59.3333 20.9247 59.3333 20.9375 59.3333C20.9503 59.3333 20.9631 59.3333 20.976 59.3333C20.9889 59.3333 21.0018 59.3333 21.0147 59.3333C21.0277 59.3333 21.0406 59.3333 21.0536 59.3333C21.0666 59.3333 21.0797 59.3333 21.0927 59.3333C21.1058 59.3333 21.1189 59.3333 21.132 59.3333C21.1451 59.3333 21.1583 59.3333 21.1714 59.3333C21.1846 59.3333 21.1978 59.3333 21.2111 59.3333C21.2243 59.3333 21.2376 59.3333 21.2509 59.3333C21.2642 59.3333 21.2775 59.3333 21.2908 59.3333C21.3042 59.3333 21.3176 59.3333 21.331 59.3333C21.3444 59.3333 21.3578 59.3333 21.3713 59.3333C21.3848 59.3333 21.3983 59.3333 21.4118 59.3333C21.4253 59.3333 21.4389 59.3333 21.4525 59.3333C21.4661 59.3333 21.4797 59.3333 21.4933 59.3333C21.507 59.3333 21.5206 59.3333 21.5343 59.3333C21.548 59.3333 21.5618 59.3333 21.5755 59.3333C21.5893 59.3333 21.6031 59.3333 21.6169 59.3333C21.6307 59.3333 21.6445 59.3333 21.6584 59.3333C21.6722 59.3333 21.6861 59.3333 21.7001 59.3333C21.714 59.3333 21.7279 59.3333 21.7419 59.3333C21.7559 59.3333 21.7699 59.3333 21.7839 59.3333C21.798 59.3333 21.812 59.3333 21.8261 59.3333C21.8402 59.3333 21.8543 59.3333 21.8685 59.3333C21.8826 59.3333 21.8968 59.3333 21.911 59.3333C21.9252 59.3333 21.9394 59.3333 21.9537 59.3333C21.9679 59.3333 21.9822 59.3333 21.9965 59.3333C22.0108 59.3333 22.0251 59.3333 22.0395 59.3333C22.0539 59.3333 22.0682 59.3333 22.0827 59.3333C22.0971 59.3333 22.1115 59.3333 22.126 59.3333C22.1404 59.3333 22.1549 59.3333 22.1694 59.3333C22.184 59.3333 22.1985 59.3333 22.2131 59.3333C22.2277 59.3333 22.2422 59.3333 22.2569 59.3333C22.2715 59.3333 22.2861 59.3333 22.3008 59.3333C22.3155 59.3333 22.3302 59.3333 22.3449 59.3333C22.3596 59.3333 22.3744 59.3333 22.3892 59.3333C22.404 59.3333 22.4188 59.3333 22.4336 59.3333C22.4484 59.3333 22.4633 59.3333 22.4781 59.3333C22.493 59.3333 22.5079 59.3333 22.5229 59.3333C22.5378 59.3333 22.5527 59.3333 22.5677 59.3333C22.5827 59.3333 22.5977 59.3333 22.6127 59.3333C22.6278 59.3333 22.6428 59.3333 22.6579 59.3333C22.673 59.3333 22.6881 59.3333 22.7032 59.3333C22.7184 59.3333 22.7335 59.3333 22.7487 59.3333C22.7639 59.3333 22.7791 59.3333 22.7943 59.3333C22.8095 59.3333 22.8248 59.3333 22.84 59.3333C22.8553 59.3333 22.8706 59.3333 22.8859 59.3333C22.9013 59.3333 22.9166 59.3333 22.932 59.3333C22.9474 59.3333 22.9628 59.3333 22.9782 59.3333C22.9936 59.3333 23.009 59.3333 23.0245 59.3333C23.04 59.3333 23.0555 59.3333 23.071 59.3333C23.0865 59.3333 23.102 59.3333 23.1176 59.3333C23.1332 59.3333 23.1487 59.3333 23.1644 59.3333C23.18 59.3333 23.1956 59.3333 23.2112 59.3333C23.2269 59.3333 23.2426 59.3333 23.2583 59.3333C23.274 59.3333 23.2897 59.3333 23.3055 59.3333C23.3212 59.3333 23.337 59.3333 23.3528 59.3333C23.3686 59.3333 23.3844 59.3333 23.4002 59.3333C23.416 59.3333 23.4319 59.3333 23.4478 59.3333C23.4637 59.3333 23.4796 59.3333 23.4955 59.3333C23.5114 59.3333 23.5274 59.3333 23.5434 59.3333C23.5593 59.3333 23.5753 59.3333 23.5913 59.3333C23.6073 59.3333 23.6234 59.3333 23.6394 59.3333C23.6555 59.3333 23.6716 59.3333 23.6877 59.3333C23.7038 59.3333 23.7199 59.3333 23.7361 59.3333C23.7522 59.3333 23.7684 59.3333 23.7846 59.3333C23.8008 59.3333 23.817 59.3333 23.8332 59.3333C23.8494 59.3333 23.8657 59.3333 23.882 59.3333C23.8982 59.3333 23.9145 59.3333 23.9309 59.3333C23.9472 59.3333 23.9635 59.3333 23.9799 59.3333C23.9962 59.3333 24.0126 59.3333 24.029 59.3333C24.0454 59.3333 24.0618 59.3333 24.0783 59.3333C24.0947 59.3333 24.1112 59.3333 24.1277 59.3333C24.1442 59.3333 24.1607 59.3333 24.1772 59.3333C24.1937 59.3333 24.2103 59.3333 24.2268 59.3333C24.2434 59.3333 24.26 59.3333 24.2766 59.3333C24.2932 59.3333 24.3098 59.3333 24.3265 59.3333C24.3431 59.3333 24.3598 59.3333 24.3765 59.3333C24.3932 59.3333 24.4099 59.3333 24.4266 59.3333C24.4433 59.3333 24.4601 59.3333 24.4768 59.3333C24.4936 59.3333 24.5104 59.3333 24.5272 59.3333C24.544 59.3333 24.5608 59.3333 24.5776 59.3333C24.5945 59.3333 24.6113 59.3333 24.6282 59.3333C24.6451 59.3333 24.662 59.3333 24.6789 59.3333C24.6958 59.3333 24.7128 59.3333 24.7297 59.3333C24.7467 59.3333 24.7637 59.3333 24.7807 59.3333C24.7977 59.3333 24.8147 59.3333 24.8317 59.3333C24.8487 59.3333 24.8658 59.3333 24.8829 59.3333C24.8999 59.3333 24.917 59.3333 24.9341 59.3333C24.9512 59.3333 24.9684 59.3333 24.9855 59.3333C25.0026 59.3333 25.0198 59.3333 25.037 59.3333C25.0542 59.3333 25.0714 59.3333 25.0886 59.3333C25.1058 59.3333 25.123 59.3333 25.1403 59.3333C25.1575 59.3333 25.1748 59.3333 25.1921 59.3333C25.2094 59.3333 25.2267 59.3333 25.244 59.3333C25.2613 59.3333 25.2786 59.3333 25.296 59.3333C25.3134 59.3333 25.3307 59.3333 25.3481 59.3333C25.3655 59.3333 25.3829 59.3333 25.4003 59.3333C25.4178 59.3333 25.4352 59.3333 25.4527 59.3333C25.4701 59.3333 25.4876 59.3333 25.5051 59.3333C25.5226 59.3333 25.5401 59.3333 25.5576 59.3333C25.5751 59.3333 25.5927 59.3333 25.6103 59.3333C25.6278 59.3333 25.6454 59.3333 25.663 59.3333C25.6806 59.3333 25.6982 59.3333 25.7158 59.3333C25.7334 59.3333 25.7511 59.3333 25.7687 59.3333C25.7864 59.3333 25.8041 59.3333 25.8218 59.3333C25.8394 59.3333 25.8571 59.3333 25.8749 59.3333C25.8926 59.3333 25.9103 59.3333 25.9281 59.3333C25.9458 59.3333 25.9636 59.3333 25.9814 59.3333C25.9992 59.3333 26.017 59.3333 26.0348 59.3333C26.0526 59.3333 26.0704 59.3333 26.0883 59.3333C26.1061 59.3333 26.124 59.3333 26.1419 59.3333C26.1597 59.3333 26.1776 59.3333 26.1955 59.3333C26.2134 59.3333 26.2314 59.3333 26.2493 59.3333C26.2672 59.3333 26.2852 59.3333 26.3032 59.3333C26.3211 59.3333 26.3391 59.3333 26.3571 59.3333C26.3751 59.3333 26.3931 59.3333 26.4111 59.3333C26.4292 59.3333 26.4472 59.3333 26.4653 59.3333C26.4833 59.3333 26.5014 59.3333 26.5195 59.3333C26.5375 59.3333 26.5556 59.3333 26.5738 59.3333C26.5919 59.3333 26.61 59.3333 26.6281 59.3333C26.6463 59.3333 26.6644 59.3333 26.6826 59.3333C26.7008 59.3333 26.7189 59.3333 26.7371 59.3333C26.7553 59.3333 26.7735 59.3333 26.7918 59.3333C26.81 59.3333 26.8282 59.3333 26.8465 59.3333C26.8647 59.3333 26.883 59.3333 26.9012 59.3333C26.9195 59.3333 26.9378 59.3333 26.9561 59.3333C26.9744 59.3333 26.9927 59.3333 27.0111 59.3333C27.0294 59.3333 27.0477 59.3333 27.0661 59.3333C27.0844 59.3333 27.1028 59.3333 27.1212 59.3333C27.1396 59.3333 27.1579 59.3333 27.1763 59.3333C27.1948 59.3333 27.2132 59.3333 27.2316 59.3333C27.25 59.3333 27.2685 59.3333 27.2869 59.3333C27.3054 59.3333 27.3238 59.3333 27.3423 59.3333C27.3608 59.3333 27.3793 59.3333 27.3978 59.3333C27.4163 59.3333 27.4348 59.3333 27.4533 59.3333C27.4719 59.3333 27.4904 59.3333 27.509 59.3333C27.5275 59.3333 27.5461 59.3333 27.5646 59.3333C27.5832 59.3333 27.6018 59.3333 27.6204 59.3333C27.639 59.3333 27.6576 59.3333 27.6762 59.3333C27.6948 59.3333 27.7135 59.3333 27.7321 59.3333C27.7508 59.3333 27.7694 59.3333 27.7881 59.3333C27.8067 59.3333 27.8254 59.3333 27.8441 59.3333C27.8628 59.3333 27.8815 59.3333 27.9002 59.3333C27.9189 59.3333 27.9376 59.3333 27.9563 59.3333C27.9751 59.3333 27.9938 59.3333 28.0126 59.3333C28.0313 59.3333 28.0501 59.3333 28.0689 59.3333C28.0876 59.3333 28.1064 59.3333 28.1252 59.3333C28.144 59.3333 28.1628 59.3333 28.1816 59.3333C28.2004 59.3333 28.2192 59.3333 28.2381 59.3333C28.2569 59.3333 28.2757 59.3333 28.2946 59.3333C28.3135 59.3333 28.3323 59.3333 28.3512 59.3333C28.3701 59.3333 28.3889 59.3333 28.4078 59.3333C28.4267 59.3333 28.4456 59.3333 28.4645 59.3333C28.4834 59.3333 28.5024 59.3333 28.5213 59.3333C28.5402 59.3333 28.5592 59.3333 28.5781 59.3333C28.5971 59.3333 28.616 59.3333 28.635 59.3333C28.6539 59.3333 28.6729 59.3333 28.6919 59.3333C28.7109 59.3333 28.7299 59.3333 28.7489 59.3333C28.7679 59.3333 28.7869 59.3333 28.8059 59.3333C28.8249 59.3333 28.844 59.3333 28.863 59.3333C28.882 59.3333 28.9011 59.3333 28.9201 59.3333C28.9392 59.3333 28.9582 59.3333 28.9773 59.3333C28.9964 59.3333 29.0155 59.3333 29.0345 59.3333C29.0536 59.3333 29.0727 59.3333 29.0918 59.3333C29.1109 59.3333 29.13 59.3333 29.1491 59.3333C29.1683 59.3333 29.1874 59.3333 29.2065 59.3333C29.2257 59.3333 29.2448 59.3333 29.2639 59.3333C29.2831 59.3333 29.3022 59.3333 29.3214 59.3333C29.3406 59.3333 29.3597 59.3333 29.3789 59.3333C29.3981 59.3333 29.4173 59.3333 29.4365 59.3333C29.4557 59.3333 29.4749 59.3333 29.4941 59.3333C29.5133 59.3333 29.5325 59.3333 29.5517 59.3333C29.5709 59.3333 29.5901 59.3333 29.6094 59.3333C29.6286 59.3333 29.6478 59.3333 29.6671 59.3333C29.6863 59.3333 29.7056 59.3333 29.7248 59.3333C29.7441 59.3333 29.7634 59.3333 29.7826 59.3333C29.8019 59.3333 29.8212 59.3333 29.8405 59.3333C29.8598 59.3333 29.879 59.3333 29.8983 59.3333C29.9176 59.3333 29.9369 59.3333 29.9563 59.3333C29.9756 59.3333 29.9949 59.3333 30.0142 59.3333C30.0335 59.3333 30.0528 59.3333 30.0722 59.3333C30.0915 59.3333 30.1108 59.3333 30.1302 59.3333C30.1495 59.3333 30.1689 59.3333 30.1882 59.3333C30.2076 59.3333 30.2269 59.3333 30.2463 59.3333C30.2657 59.3333 30.285 59.3333 30.3044 59.3333C30.3238 59.3333 30.3431 59.3333 30.3625 59.3333C30.3819 59.3333 30.4013 59.3333 30.4207 59.3333C30.4401 59.3333 30.4595 59.3333 30.4789 59.3333C30.4983 59.3333 30.5177 59.3333 30.5371 59.3333C30.5565 59.3333 30.5759 59.3333 30.5954 59.3333C30.6148 59.3333 30.6342 59.3333 30.6536 59.3333C30.6731 59.3333 30.6925 59.3333 30.7119 59.3333C30.7314 59.3333 30.7508 59.3333 30.7703 59.3333C30.7897 59.3333 30.8091 59.3333 30.8286 59.3333C30.8481 59.3333 30.8675 59.3333 30.887 59.3333C30.9064 59.3333 30.9259 59.3333 30.9454 59.3333C30.9648 59.3333 30.9843 59.3333 31.0038 59.3333C31.0233 59.3333 31.0427 59.3333 31.0622 59.3333C31.0817 59.3333 31.1012 59.3333 31.1207 59.3333C31.1402 59.3333 31.1596 59.3333 31.1791 59.3333C31.1986 59.3333 31.2181 59.3333 31.2376 59.3333C31.2571 59.3333 31.2766 59.3333 31.2961 59.3333C31.3156 59.3333 31.3351 59.3333 31.3547 59.3333C31.3742 59.3333 31.3937 59.3333 31.4132 59.3333C31.4327 59.3333 31.4522 59.3333 31.4717 59.3333C31.4913 59.3333 31.5108 59.3333 31.5303 59.3333C31.5498 59.3333 31.5694 59.3333 31.5889 59.3333C31.6084 59.3333 31.628 59.3333 31.6475 59.3333C31.667 59.3333 31.6866 59.3333 31.7061 59.3333C31.7256 59.3333 31.7452 59.3333 31.7647 59.3333C31.7842 59.3333 31.8038 59.3333 31.8233 59.3333C31.8429 59.3333 31.8624 59.3333 31.882 59.3333C31.9015 59.3333 31.9211 59.3333 31.9406 59.3333C31.9601 59.3333 31.9797 59.3333 31.9992 59.3333C32.0188 59.3333 32.0384 59.3333 32.0579 59.3333C32.0775 59.3333 32.097 59.3333 32.1166 59.3333C32.1361 59.3333 32.1557 59.3333 32.1752 59.3333C32.1948 59.3333 32.2143 59.3333 32.2339 59.3333C32.2535 59.3333 32.273 59.3333 32.2926 59.3333C32.3121 59.3333 32.3317 59.3333 32.3512 59.3333C32.3708 59.3333 32.3904 59.3333 32.4099 59.3333C32.4295 59.3333 32.449 59.3333 32.4686 59.3333C32.4882 59.3333 32.5077 59.3333 32.5273 59.3333C32.5468 59.3333 32.5664 59.3333 32.5859 59.3333C32.6055 59.3333 32.6251 59.3333 32.6446 59.3333C32.6642 59.3333 32.6837 59.3333 32.7033 59.3333C32.7228 59.3333 32.7424 59.3333 32.762 59.3333C32.7815 59.3333 32.8011 59.3333 32.8206 59.3333C32.8402 59.3333 32.8597 59.3333 32.8793 59.3333C32.8988 59.3333 32.9184 59.3333 32.9379 59.3333C32.9575 59.3333 32.977 59.3333 32.9966 59.3333C33.0161 59.3333 33.0357 59.3333 33.0552 59.3333C33.0748 59.3333 33.0943 59.3333 33.1138 59.3333C33.1334 59.3333 33.1529 59.3333 33.1725 59.3333C33.192 59.3333 33.2115 59.3333 33.2311 59.3333C33.2506 59.3333 33.2701 59.3333 33.2897 59.3333C33.3092 59.3333 33.3287 59.3333 33.3482 59.3333C33.3678 59.3333 33.3873 59.3333 33.4068 59.3333C33.4263 59.3333 33.4459 59.3333 33.4654 59.3333C33.4849 59.3333 33.5044 59.3333 33.5239 59.3333C33.5434 59.3333 33.563 59.3333 33.5825 59.3333C33.602 59.3333 33.6215 59.3333 33.641 59.3333C33.6605 59.3333 33.68 59.3333 33.6995 59.3333C33.719 59.3333 33.7385 59.3333 33.758 59.3333C33.7775 59.3333 33.7969 59.3333 33.8164 59.3333C33.8359 59.3333 33.8554 59.3333 33.8749 59.3333C33.8943 59.3333 33.9138 59.3333 33.9333 59.3333C33.9528 59.3333 33.9722 59.3333 33.9917 59.3333C34.0112 59.3333 34.0306 59.3333 34.0501 59.3333C34.0695 59.3333 34.089 59.3333 34.1084 59.3333C34.1279 59.3333 34.1473 59.3333 34.1668 59.3333C34.1862 59.3333 34.2057 59.3333 34.2251 59.3333C34.2445 59.3333 34.264 59.3333 34.2834 59.3333C34.3028 59.3333 34.3222 59.3333 34.3416 59.3333C34.3611 59.3333 34.3805 59.3333 34.3999 59.3333C34.4193 59.3333 34.4387 59.3333 34.4581 59.3333C34.4775 59.3333 34.4969 59.3333 34.5163 59.3333C34.5357 59.3333 34.555 59.3333 34.5744 59.3333C34.5938 59.3333 34.6132 59.3333 34.6325 59.3333C34.6519 59.3333 34.6713 59.3333 34.6906 59.3333C34.71 59.3333 34.7293 59.3333 34.7487 59.3333C34.768 59.3333 34.7874 59.3333 34.8067 59.3333C34.8261 59.3333 34.8454 59.3333 34.8647 59.3333C34.884 59.3333 34.9034 59.3333 34.9227 59.3333C34.942 59.3333 34.9613 59.3333 34.9806 59.3333C34.9999 59.3333 35.0192 59.3333 35.0385 59.3333C35.0578 59.3333 35.0771 59.3333 35.0963 59.3333C35.1156 59.3333 35.1349 59.3333 35.1542 59.3333C35.1734 59.3333 35.1927 59.3333 35.2119 59.3333C35.2312 59.3333 35.2504 59.3333 35.2697 59.3333C35.2889 59.3333 35.3082 59.3333 35.3274 59.3333C35.3466 59.3333 35.3658 59.3333 35.385 59.3333C35.4043 59.3333 35.4235 59.3333 35.4427 59.3333C35.4619 59.3333 35.481 59.3333 35.5002 59.3333C35.5194 59.3333 35.5386 59.3333 35.5578 59.3333C35.5769 59.3333 35.5961 59.3333 35.6153 59.3333C35.6344 59.3333 35.6536 59.3333 35.6727 59.3333C35.6918 59.3333 35.711 59.3333 35.7301 59.3333C35.7492 59.3333 35.7683 59.3333 35.7875 59.3333C35.8066 59.3333 35.8257 59.3333 35.8448 59.3333C35.8639 59.3333 35.8829 59.3333 35.902 59.3333C35.9211 59.3333 35.9402 59.3333 35.9592 59.3333C35.9783 59.3333 35.9973 59.3333 36.0164 59.3333C36.0354 59.3333 36.0545 59.3333 36.0735 59.3333C36.0925 59.3333 36.1115 59.3333 36.1306 59.3333C36.1496 59.3333 36.1686 59.3333 36.1876 59.3333C36.2066 59.3333 36.2255 59.3333 36.2445 59.3333C36.2635 59.3333 36.2825 59.3333 36.3014 59.3333C36.3204 59.3333 36.3393 59.3333 36.3583 59.3333C36.3772 59.3333 36.3961 59.3333 36.4151 59.3333C36.434 59.3333 36.4529 59.3333 36.4718 59.3333C36.4907 59.3333 36.5096 59.3333 36.5285 59.3333C36.5473 59.3333 36.5662 59.3333 36.5851 59.3333C36.6039 59.3333 36.6228 59.3333 36.6416 59.3333C36.6605 59.3333 36.6793 59.3333 36.6981 59.3333C36.717 59.3333 36.7358 59.3333 36.7546 59.3333C36.7734 59.3333 36.7922 59.3333 36.811 59.3333C36.8298 59.3333 36.8485 59.3333 36.8673 59.3333C36.8861 59.3333 36.9048 59.3333 36.9235 59.3333C36.9423 59.3333 36.961 59.3333 36.9797 59.3333C36.9985 59.3333 37.0172 59.3333 37.0359 59.3333C37.0546 59.3333 37.0733 59.3333 37.0919 59.3333C37.1106 59.3333 37.1293 59.3333 37.1479 59.3333C37.1666 59.3333 37.1852 59.3333 37.2039 59.3333C37.2225 59.3333 37.2411 59.3333 37.2597 59.3333C37.2783 59.3333 37.2969 59.3333 37.3155 59.3333C37.3341 59.3333 37.3527 59.3333 37.3712 59.3333C37.3898 59.3333 37.4084 59.3333 37.4269 59.3333C37.4454 59.3333 37.464 59.3333 37.4825 59.3333C37.501 59.3333 37.5195 59.3333 37.538 59.3333C37.5565 59.3333 37.575 59.3333 37.5934 59.3333C37.6119 59.3333 37.6304 59.3333 37.6488 59.3333C37.6672 59.3333 37.6857 59.3333 37.7041 59.3333C37.7225 59.3333 37.7409 59.3333 37.7593 59.3333C37.7777 59.3333 37.7961 59.3333 37.8145 59.3333C37.8328 59.3333 37.8512 59.3333 37.8695 59.3333C37.8879 59.3333 37.9062 59.3333 37.9245 59.3333C37.9428 59.3333 37.9611 59.3333 37.9794 59.3333C37.9977 59.3333 38.016 59.3333 38.0342 59.3333C38.0525 59.3333 38.0708 59.3333 38.089 59.3333C38.1072 59.3333 38.1255 59.3333 38.1437 59.3333C38.1619 59.3333 38.1801 59.3333 38.1982 59.3333C38.2164 59.3333 38.2346 59.3333 38.2528 59.3333C38.2709 59.3333 38.289 59.3333 38.3072 59.3333C38.3253 59.3333 38.3434 59.3333 38.3615 59.3333C38.3796 59.3333 38.3977 59.3333 38.4158 59.3333C38.4338 59.3333 38.4519 59.3333 38.4699 59.3333C38.488 59.3333 38.506 59.3333 38.524 59.3333C38.542 59.3333 38.56 59.3333 38.578 59.3333C38.596 59.3333 38.614 59.3333 38.6319 59.3333C38.6499 59.3333 38.6678 59.3333 38.6857 59.3333C38.7037 59.3333 38.7216 59.3333 38.7395 59.3333C38.7574 59.3333 38.7752 59.3333 38.7931 59.3333C38.811 59.3333 38.8288 59.3333 38.8466 59.3333C38.8645 59.3333 38.8823 59.3333 38.9001 59.3333C38.9179 59.3333 38.9357 59.3333 38.9534 59.3333C38.9712 59.3333 38.989 59.3333 39.0067 59.3333C39.0245 59.3333 39.0422 59.3333 39.0599 59.3333C39.0776 59.3333 39.0953 59.3333 39.113 59.3333C39.1306 59.3333 39.1483 59.3333 39.1659 59.3333C39.1836 59.3333 39.2012 59.3333 39.2188 59.3333C39.2364 59.3333 39.254 59.3333 39.2716 59.3333C39.2892 59.3333 39.3067 59.3333 39.3243 59.3333C39.3418 59.3333 39.3594 59.3333 39.3769 59.3333C39.3944 59.3333 39.4119 59.3333 39.4294 59.3333C39.4468 59.3333 39.4643 59.3333 39.4817 59.3333C39.4992 59.3333 39.5166 59.3333 39.534 59.3333C39.5514 59.3333 39.5688 59.3333 39.5862 59.3333C39.6036 59.3333 39.6209 59.3333 39.6383 59.3333C39.6556 59.3333 39.6729 59.3333 39.6902 59.3333C39.7075 59.3333 39.7248 59.3333 39.7421 59.3333C39.7594 59.3333 39.7766 59.3333 39.7939 59.3333C39.8111 59.3333 39.8283 59.3333 39.8455 59.3333C39.8627 59.3333 39.8799 59.3333 39.8971 59.3333C39.9142 59.3333 39.9314 59.3333 39.9485 59.3333C39.9656 59.3333 39.9827 59.3333 39.9998 59.3333V57.3333ZM62.2924 32.5466L57.7797 50.5949L59.72 51.08L64.2326 33.0317L62.2924 32.5466Z" fill="#393939"/>
<path d="M52.5 29.1666L40.8333 11.6666M26.25 40.8333V46.6666V40.8333ZM43.75 40.8333V46.6666V40.8333ZM17.5 29.1666L29.1667 11.6666L17.5 29.1666Z" stroke="#393939" stroke-width="2" stroke-linecap="round"/>
<path d="M55 45V52.5H62.5V57.5H55V65H50V57.5H42.5V52.5H50V45H55Z" fill="#393939"/>
</svg>
