<svg width="70" height="70" viewBox="0 0 70 70" fill="none" xmlns="http://www.w3.org/2000/svg">
<path d="M41.6587 10.2112L18.9875 33.4687C18.5893 33.8772 18.3665 34.4251 18.3665 34.9956C18.3665 35.5661 18.5893 36.1139 18.9875 36.5225L41.6587 59.7887C41.8442 59.9792 42.066 60.1306 42.3109 60.234C42.5559 60.3374 42.8191 60.3907 43.085 60.3907C43.3509 60.3907 43.6141 60.3374 43.859 60.234C44.104 60.1306 44.3258 59.9792 44.5112 59.7887C44.8928 59.398 45.1065 58.8736 45.1065 58.3275C45.1065 57.7813 44.8928 57.2569 44.5112 56.8662L23.1919 34.9956L44.5112 13.1293C44.8915 12.7389 45.1043 12.2153 45.1043 11.6703C45.1043 11.1252 44.8915 10.6017 44.5112 10.2112C44.3258 10.0207 44.104 9.86929 43.859 9.76591C43.6141 9.66252 43.3509 9.60925 43.085 9.60925C42.8191 9.60925 42.5559 9.66252 42.3109 9.76591C42.066 9.86929 41.8442 10.0207 41.6587 10.2112V10.2112Z" fill="#393939"/>
</svg>
