<svg width="70" height="70" viewBox="0 0 70 70" fill="none" xmlns="http://www.w3.org/2000/svg">
<path d="M61.6667 36.6667H51.6667M21.6667 13.3334C22.5507 13.3334 23.3986 13.6846 24.0237 14.3097C24.6488 14.9348 25 15.7827 25 16.6667V23.3334C25 24.2174 24.6488 25.0653 24.0237 25.6904C23.3986 26.3155 22.5507 26.6667 21.6667 26.6667C20.7826 26.6667 19.9348 26.3155 19.3096 25.6904C18.6845 25.0653 18.3333 24.2174 18.3333 23.3334V16.6667C18.3333 15.7827 18.6845 14.9348 19.3096 14.3097C19.9348 13.6846 20.7826 13.3334 21.6667 13.3334V13.3334ZM61.6667 20H25H61.6667ZM18.3333 20H8.33333H18.3333ZM21.6667 46.6667C22.5507 46.6667 23.3986 47.0179 24.0237 47.643C24.6488 48.2681 25 49.116 25 50V56.6667C25 57.5508 24.6488 58.3986 24.0237 59.0237C23.3986 59.6489 22.5507 60 21.6667 60C20.7826 60 19.9348 59.6489 19.3096 59.0237C18.6845 58.3986 18.3333 57.5508 18.3333 56.6667V50C18.3333 49.116 18.6845 48.2681 19.3096 47.643C19.9348 47.0179 20.7826 46.6667 21.6667 46.6667ZM61.6667 53.3334H25H61.6667ZM18.3333 53.3334H8.33333H18.3333ZM48.3333 30C49.2174 30 50.0652 30.3512 50.6903 30.9764C51.3155 31.6015 51.6667 32.4493 51.6667 33.3334V40C51.6667 40.8841 51.3155 41.7319 50.6903 42.3571C50.0652 42.9822 49.2174 43.3334 48.3333 43.3334C47.4493 43.3334 46.6014 42.9822 45.9763 42.3571C45.3512 41.7319 45 40.8841 45 40V33.3334C45 32.4493 45.3512 31.6015 45.9763 30.9764C46.6014 30.3512 47.4493 30 48.3333 30V30ZM45 36.6667H8.33333H45Z" stroke="#393939" stroke-width="2" stroke-linecap="round" stroke-linejoin="round"/>
</svg>
