<svg width="70" height="70" viewBox="0 0 70 70" fill="none" xmlns="http://www.w3.org/2000/svg">
<path d="M32.1679 7.4083C33.0343 6.92716 34.009 6.67468 35 6.67468C35.991 6.67468 36.9657 6.92716 37.8321 7.4083L59.7508 19.5825C60.2053 19.8352 60.5839 20.2048 60.8475 20.653C61.111 21.1012 61.25 21.6117 61.25 22.1316V46.1504C61.2498 47.1906 60.9714 48.2118 60.4437 49.1083C59.916 50.0047 59.1581 50.7437 58.2488 51.2487L37.8321 62.5946C36.9657 63.0757 35.991 63.3282 35 63.3282C34.009 63.3282 33.0343 63.0757 32.1679 62.5946L11.7512 51.2487C10.8423 50.7439 10.0848 50.0054 9.55708 49.1095C9.02941 48.2136 8.75077 47.193 8.75 46.1533V22.1316C8.74998 21.6117 8.88896 21.1012 9.15254 20.653C9.41613 20.2048 9.79474 19.8352 10.2492 19.5825L32.1708 7.4083H32.1679Z" stroke="#393939" stroke-width="2" stroke-linecap="round" stroke-linejoin="round"/>
<path d="M35 35V64.1666M8.75 20.4166L35 35L8.75 20.4166ZM35 35L61.25 20.4166L35 35Z" stroke="#393939" stroke-width="2" stroke-linejoin="round"/>
<path d="M17.5 35.9567L26.25 40.8333M21.875 27.7083L48.125 13.125L21.875 27.7083Z" stroke="#393939" stroke-width="2" stroke-linecap="round" stroke-linejoin="round"/>
</svg>
