<svg width="70" height="70" viewBox="0 0 70 70" fill="none" xmlns="http://www.w3.org/2000/svg">
<path d="M63.4375 10.9375H6.5625C5.35254 10.9375 4.375 11.915 4.375 13.125V56.875C4.375 58.085 5.35254 59.0625 6.5625 59.0625H63.4375C64.6475 59.0625 65.625 58.085 65.625 56.875V13.125C65.625 11.915 64.6475 10.9375 63.4375 10.9375ZM57.9141 18.3818L36.3467 35.1641C35.8135 35.5811 35.0684 35.5811 34.5352 35.1641L12.9609 18.3818C12.8796 18.3191 12.82 18.2324 12.7903 18.1341C12.7607 18.0357 12.7626 17.9305 12.7958 17.8333C12.829 17.7361 12.8917 17.6517 12.9753 17.5919C13.0588 17.5321 13.159 17.5 13.2617 17.5H57.6133C57.716 17.5 57.8162 17.5321 57.8997 17.5919C57.9833 17.6517 58.046 17.7361 58.0792 17.8333C58.1124 17.9305 58.1143 18.0357 58.0847 18.1341C58.055 18.2324 57.9954 18.3191 57.9141 18.3818Z" fill="#D1B39F"/>
</svg>
