<svg width="70" height="70" viewBox="0 0 70 70" fill="none" xmlns="http://www.w3.org/2000/svg">
<path d="M54.4354 38.8116V58.8246C54.4354 59.5473 54.2272 60.1727 53.8108 60.7008C53.3943 61.229 52.9012 61.493 52.3314 61.493H39.7079V45.4826H31.2921V61.493H18.6686C18.0988 61.493 17.6057 61.229 17.1892 60.7008C16.7728 60.1727 16.5646 59.5473 16.5646 58.8246V38.8116C16.5646 38.7839 16.5701 38.7422 16.5811 38.6866C16.592 38.631 16.5975 38.5893 16.5975 38.5615L35.5 18.7987L54.4025 38.5615C54.4244 38.6171 54.4354 38.7005 54.4354 38.8116ZM61.7662 35.9348L59.728 39.0201C59.5527 39.2703 59.3226 39.4232 59.0377 39.4787H58.9391C58.6542 39.4787 58.4241 39.3815 58.2487 39.1869L35.5 15.1296L12.7513 39.1869C12.4883 39.4093 12.2253 39.5065 11.9623 39.4787C11.6774 39.4232 11.4473 39.2703 11.272 39.0201L9.23377 35.9348C9.05844 35.6568 8.98174 35.3302 9.00365 34.955C9.02557 34.5797 9.14611 34.2809 9.36527 34.0586L33.0016 9.08404C33.7029 8.36135 34.5357 8 35.5 8C36.4643 8 37.2971 8.36135 37.9984 9.08404L46.0196 17.5896V9.45928C46.0196 9.07014 46.1183 8.75049 46.3155 8.50032C46.5127 8.25016 46.7648 8.12508 47.0716 8.12508H53.3834C53.6902 8.12508 53.9422 8.25016 54.1395 8.50032C54.3367 8.75049 54.4354 9.07014 54.4354 9.45928V26.4703L61.6347 34.0586C61.8539 34.2809 61.9744 34.5797 61.9963 34.955C62.0183 35.3302 61.9416 35.6568 61.7662 35.9348Z" fill="#393939"/>
</svg>
