<svg width="70" height="70" viewBox="0 0 70 70" fill="none" xmlns="http://www.w3.org/2000/svg">
<path d="M36.2023 26.005C36.1624 29.0574 39.0086 30.7607 41.1526 31.7735C43.3554 32.8125 44.0954 33.4789 44.0866 34.4082C44.0702 35.8303 42.3295 36.4579 40.7006 36.4823C37.8588 36.525 36.2064 35.7385 34.8928 35.1437L33.8691 39.7873C35.187 40.376 37.6275 40.8895 40.1581 40.912C46.0986 40.912 49.9849 38.0695 50.006 33.6623C50.0292 28.069 42.0249 27.7594 42.0796 25.2594C42.0984 24.5013 42.8447 23.6924 44.4798 23.4867C45.2892 23.3828 47.5234 23.3032 50.0566 24.434L51.0508 19.9412C49.6885 19.4604 47.9377 19 45.7579 19C40.1666 19 36.234 21.8812 36.2023 26.005V26.005ZM60.6041 19.387C59.5194 19.387 58.6053 20.0003 58.1973 20.9416L49.7118 40.582H55.6478L56.8291 37.4174H64.0828L64.768 40.582H70L65.4344 19.387H60.6041V19.387ZM61.4346 25.1125L63.1477 33.0715H58.456L61.4346 25.1125V25.1125ZM29.0052 19.3872L24.3261 40.5817H29.9827L34.6596 19.3867H29.0052V19.3872ZM20.6371 19.3867L14.7495 33.8131L12.3679 21.547C12.0884 20.1777 10.9848 19.387 9.75926 19.387H0.134805L0 20.0024C1.97586 20.4181 4.22078 21.0884 5.58086 21.8057C6.4132 22.2438 6.65055 22.6268 6.92398 23.668L11.4349 40.582H17.4125L26.577 19.387H20.6371" fill="url(#paint0_linear_851_3030)"/>
<defs>
<linearGradient id="paint0_linear_851_3030" x1="32.1818" y1="41.3515" x2="32.7967" y2="18.8465" gradientUnits="userSpaceOnUse">
<stop stop-color="#222357"/>
<stop offset="1" stop-color="#254AA5"/>
</linearGradient>
</defs>
</svg>
