<svg width="70" height="70" viewBox="0 0 70 70" fill="none" xmlns="http://www.w3.org/2000/svg">
<path d="M18.9944 54.9118V52.2648C18.9944 51.2499 18.3543 50.5883 17.2571 50.5883C16.7086 50.5883 16.1142 50.7647 15.7028 51.3383C15.3829 50.853 14.9258 50.5883 14.2401 50.5883C13.7828 50.5883 13.3259 50.7205 12.96 51.2059V50.6765H12V54.9118H12.96V52.5735C12.96 51.8236 13.3715 51.4705 14.0116 51.4705C14.6513 51.4705 14.9716 51.8677 14.9716 52.5735V54.9118H15.9316V52.5735C15.9316 51.8236 16.3885 51.4705 16.9828 51.4705C17.623 51.4705 17.9428 51.8677 17.9428 52.5735V54.9118H18.9944V54.9118ZM33.2113 50.6765H31.6572V49.3971H30.6972V50.6765H29.8286V51.5146H30.697V53.4559C30.697 54.4266 31.1085 55 32.2057 55C32.6172 55 33.0741 54.8678 33.3944 54.6913L33.1199 53.8971C32.8457 54.0735 32.5258 54.1177 32.2971 54.1177C31.8401 54.1177 31.6572 53.8531 31.6572 53.4117V51.5146H33.2113V50.6765V50.6765ZM41.3486 50.5881C40.8001 50.5881 40.4344 50.853 40.2058 51.2059V50.6765H39.2458V54.9118H40.2058V52.5295C40.2058 51.8236 40.5256 51.4265 41.1199 51.4265C41.3028 51.4265 41.5314 51.4707 41.7143 51.5148L41.9885 50.6325C41.8057 50.5883 41.5314 50.5883 41.3486 50.5883V50.5881ZM29.0515 51.0294C28.5942 50.7205 27.9543 50.5883 27.2685 50.5883C26.1715 50.5883 25.4401 51.1176 25.4401 51.9559C25.4401 52.6619 25.9887 53.0588 26.9487 53.1913L27.4057 53.2355C27.9087 53.3235 28.1829 53.4559 28.1829 53.6766C28.1829 53.9853 27.8172 54.206 27.1771 54.206C26.5372 54.206 26.0343 53.9853 25.7142 53.7648L25.2571 54.4706C25.76 54.8235 26.4458 55 27.1313 55C28.4113 55 29.1429 54.4266 29.1429 53.6324C29.1429 52.8824 28.5486 52.4852 27.6342 52.353L27.1771 52.3088C26.7656 52.2646 26.4457 52.1766 26.4457 51.9119C26.4457 51.603 26.7656 51.4265 27.2685 51.4265C27.8172 51.4265 28.3657 51.647 28.64 51.7794L29.0515 51.0294V51.0294ZM54.5601 50.5883C54.0114 50.5883 53.6457 50.853 53.4171 51.2059V50.6765H52.4571V54.9118H53.4171V52.5295C53.4171 51.8236 53.7371 51.4265 54.3312 51.4265C54.5143 51.4265 54.7429 51.4707 54.9258 51.5148L55.2 50.6325C55.0172 50.5883 54.7429 50.5883 54.5601 50.5883V50.5883ZM42.3086 52.7941C42.3086 54.0735 43.2228 55 44.6401 55C45.28 55 45.7371 54.8678 46.1942 54.5149L45.7371 53.7648C45.3714 54.0295 45.0057 54.1618 44.5943 54.1618C43.8171 54.1618 43.2686 53.6324 43.2686 52.7941C43.2686 52.0001 43.8171 51.4705 44.5943 51.4265C45.0057 51.4265 45.3714 51.5588 45.7371 51.8236L46.1942 51.0736C45.7371 50.7205 45.28 50.5883 44.6401 50.5883C43.2228 50.5883 42.3086 51.5148 42.3086 52.7941ZM51.1772 52.7941V50.6765H50.2172V51.2059C49.8971 50.8089 49.44 50.5883 48.8457 50.5883C47.6115 50.5883 46.6515 51.5148 46.6515 52.7941C46.6515 54.0735 47.6115 55 48.8457 55C49.4857 55 49.943 54.7795 50.2172 54.3824V54.9118H51.1772V52.7941V52.7941ZM47.6571 52.7941C47.6571 52.0441 48.16 51.4265 48.9827 51.4265C49.7599 51.4265 50.3086 52.0001 50.3086 52.7941C50.3086 53.5442 49.7599 54.1618 48.9827 54.1618C48.16 54.1175 47.6571 53.5442 47.6571 52.7941V52.7941ZM36.1829 50.5883C34.9029 50.5883 33.9885 51.4705 33.9885 52.7941C33.9885 54.1177 34.9027 55 36.2285 55C36.8685 55 37.5086 54.8235 38.0115 54.4266L37.5542 53.7648C37.1885 54.0295 36.7315 54.206 36.2744 54.206C35.68 54.206 35.0857 53.9413 34.9485 53.1911H38.1944V52.8384C38.2402 51.4705 37.4172 50.5883 36.1827 50.5883H36.1829ZM36.1829 51.3823C36.7771 51.3823 37.1888 51.7354 37.28 52.3972H34.9943C35.0857 51.8236 35.4972 51.3823 36.1829 51.3823ZM60 52.7941V49H59.04V51.2059C58.7199 50.8089 58.2628 50.5883 57.6685 50.5883C56.4343 50.5883 55.4743 51.5148 55.4743 52.7941C55.4743 54.0735 56.4343 55 57.6685 55C58.3087 55 58.7658 54.7795 59.04 54.3824V54.9118H60V52.7941V52.7941ZM56.4801 52.7941C56.4801 52.0441 56.9828 51.4265 57.8058 51.4265C58.5829 51.4265 59.1314 52.0001 59.1314 52.7941C59.1314 53.5442 58.5829 54.1618 57.8058 54.1618C56.9828 54.1175 56.4801 53.5442 56.4801 52.7941V52.7941ZM24.3885 52.7941V50.6765H23.4285V51.2059C23.1085 50.8089 22.6514 50.5883 22.057 50.5883C20.8228 50.5883 19.8628 51.5148 19.8628 52.7941C19.8628 54.0735 20.8228 55 22.057 55C22.6972 55 23.1543 54.7795 23.4285 54.3824V54.9118H24.3885V52.7941V52.7941ZM20.8228 52.7941C20.8228 52.0441 21.3257 51.4265 22.1485 51.4265C22.9256 51.4265 23.4743 52.0001 23.4743 52.7941C23.4743 53.5442 22.9256 54.1618 22.1485 54.1618C21.3257 54.1175 20.8228 53.5442 20.8228 52.7941V52.7941Z" fill="black"/>
<path d="M29 18H42V43H29V18Z" fill="#FF5F00"/>
<path d="M29.6445 31C29.6445 25.889 32.1496 21.3555 36 18.4221C33.1703 16.2888 29.5982 15 25.7013 15C16.469 15 9 22.1554 9 31C9 39.8443 16.469 47 25.7011 47C29.598 47 33.1701 45.7112 36 43.5777C32.1496 40.6888 29.6445 36.111 29.6445 31V31Z" fill="#EB001B"/>
<path d="M60.9998 31C60.9998 39.8443 54.0841 47 45.5359 47C41.9277 47 38.6203 45.7112 36 43.5777C39.6082 40.6445 41.8849 36.111 41.8849 31C41.8849 25.889 39.5652 21.3555 36 18.4221C38.6201 16.2888 41.9277 15 45.5359 15C54.0841 15 61 22.2 61 31H60.9998Z" fill="#F79E1B"/>
</svg>
