<svg width="70" height="70" viewBox="0 0 70 70" fill="none" xmlns="http://www.w3.org/2000/svg">
<path d="M47.0573 18.0533C45.1284 15.9162 41.6417 15 37.1811 15H24.2354C23.794 15 23.3672 15.1531 23.0316 15.4316C22.6959 15.7102 22.4735 16.096 22.4044 16.5197L17.014 49.7513C16.9068 50.4066 17.4289 51 18.1121 51H26.1044L28.1116 38.6245L28.0493 39.012C28.1923 38.1373 28.962 37.492 29.8734 37.492H33.6713C41.1323 37.492 46.9744 34.5463 48.6809 26.0248C48.7316 25.7728 48.7754 25.5275 48.8134 25.2878C48.598 25.177 48.598 25.177 48.8134 25.2878C49.3215 22.1382 48.8099 19.9943 47.0573 18.0533" fill="#27346A"/>
<path d="M31.1697 24.1535C31.3882 24.0523 31.6272 23.9999 31.8692 24.0001H42.0185C43.2203 24.0001 44.3413 24.0761 45.3656 24.2364C45.6523 24.2808 45.9374 24.3338 46.2207 24.3954C46.6222 24.4815 47.019 24.5869 47.4098 24.7112C47.9134 24.8747 48.3824 25.0651 48.8135 25.2881C49.3215 22.1372 48.8099 19.9944 47.0572 18.0534C45.1273 15.9162 41.6417 15 37.1811 15H24.2342C23.3227 15 22.5472 15.6451 22.4044 16.5197L17.014 49.751C16.9068 50.4074 17.4289 51 18.111 51H26.1044L30.2687 25.3295C30.3097 25.0772 30.4131 24.8384 30.57 24.6335C30.727 24.4286 30.9328 24.2639 31.1697 24.1535V24.1535Z" fill="#27346A"/>
<path d="M48.3466 26.732C46.6249 35.1945 40.731 38.1215 33.2034 38.1215H29.3706C28.4511 38.1215 27.6744 38.7623 27.5316 39.6311L25.0123 54.9143C24.9181 55.4839 25.3784 56 25.9807 56H32.7779C33.1673 55.9999 33.5438 55.8669 33.8399 55.6248C34.1359 55.3828 34.3319 55.0476 34.3928 54.6796L34.459 54.3481L35.7401 46.5785L35.8226 46.1491C35.8835 45.7811 36.0795 45.4459 36.3755 45.2039C36.6715 44.9618 37.048 44.8288 37.4374 44.8286H38.4547C45.0392 44.8286 50.195 42.2688 51.7017 34.8653C52.3306 31.7714 52.0052 29.1883 50.3415 27.3739C49.837 26.8243 49.2103 26.3705 48.4803 26C48.4408 26.2392 48.3979 26.4817 48.3466 26.732V26.732Z" fill="#2790C3"/>
<path d="M46.2785 24.5955C46.0222 24.52 45.7635 24.4532 45.5028 24.3951C45.2298 24.3346 44.9552 24.282 44.6792 24.2373C43.6915 24.0761 42.6125 24 41.4539 24H31.6793C31.4461 23.9995 31.2157 24.0523 31.0056 24.1545C30.7771 24.2645 30.5786 24.429 30.4274 24.6337C30.2762 24.8385 30.1767 25.0773 30.1376 25.3296L28.06 38.6128L28 39C28.1367 38.126 28.878 37.4813 29.756 37.4813H33.4152C40.6016 37.4813 46.2285 34.5379 47.8723 26.0235C47.9212 25.7716 47.9623 25.5276 48 25.2871C47.5837 25.0655 47.1332 24.8741 46.648 24.7118C46.5256 24.6708 46.4024 24.6321 46.2787 24.5955" fill="#1F264F"/>
</svg>
