<svg width="15" height="16" viewBox="0 0 15 16" fill="none" xmlns="http://www.w3.org/2000/svg">
<path d="M7.54813 15.04C7.20146 15.04 6.90813 14.9467 6.66813 14.76C6.45479 14.5733 6.34813 14.3333 6.34813 14.04V8.8H1.10813C0.814792 8.8 0.574792 8.69333 0.388125 8.48C0.201458 8.24 0.108125 7.96 0.108125 7.64C0.108125 7.29333 0.201458 7.01333 0.388125 6.8C0.574792 6.56 0.814792 6.44 1.10813 6.44H6.34813V1.24C6.34813 0.973332 6.45479 0.733332 6.66813 0.52C6.90813 0.306666 7.20146 0.199999 7.54813 0.199999C7.89479 0.199999 8.16146 0.306666 8.34813 0.52C8.56146 0.733332 8.66813 0.973332 8.66813 1.24V6.44H13.9081C14.1481 6.44 14.3748 6.56 14.5881 6.8C14.8015 7.01333 14.9081 7.29333 14.9081 7.64C14.9081 7.96 14.8015 8.24 14.5881 8.48C14.3748 8.69333 14.1481 8.8 13.9081 8.8H8.66813V14.04C8.66813 14.3333 8.56146 14.5733 8.34813 14.76C8.16146 14.9467 7.89479 15.04 7.54813 15.04Z" fill="#393939"/>
</svg>
